<svg width="100" height="100" viewBox="0 0 100 100" fill="none" xmlns="http://www.w3.org/2000/svg">
<path d="M48.1935 35.4004C48.2878 35.4119 48.2878 35.4119 48.3888 35.4492C48.4686 35.5703 48.5375 35.688 48.6055 35.8154C48.9713 36.4679 49.4329 37.0588 49.9513 37.5977C49.9769 37.6247 50.0024 37.6517 50.0287 37.6796C51.0133 38.7192 52.1892 39.4356 53.4861 40.0283C53.6131 40.0877 53.7378 40.1507 53.8625 40.2147C54.0865 40.3277 54.3139 40.4168 54.5503 40.4999C54.8927 40.623 55.2311 40.7524 55.5675 40.8909C55.737 40.959 55.909 41.0189 56.0814 41.0793C56.4442 41.2082 56.799 41.3536 57.1535 41.5039C57.219 41.5316 57.2846 41.5592 57.3502 41.5868C57.8677 41.8053 58.3835 42.0279 58.8984 42.2526C59.7163 42.6092 60.5392 42.9487 61.3715 43.2701C61.5222 43.3283 61.6727 43.3867 61.8232 43.4452C62.3985 43.6682 62.9757 43.8857 63.5545 44.0992C64.1766 44.3287 64.7968 44.5631 65.417 44.7974C65.7125 44.909 66.0081 45.0205 66.3036 45.1321C66.3359 45.1442 66.3682 45.1564 66.4014 45.169C66.9159 45.3631 67.4307 45.5562 67.9458 45.7487C70.1941 46.5894 72.434 47.4542 74.6663 48.3366C75.0768 48.4989 75.4878 48.6603 75.8989 48.8211C77.854 49.5857 77.854 49.5857 78.5829 49.881C78.6342 49.9016 78.6854 49.9222 78.7382 49.9435C78.9521 50.0309 79.1499 50.1206 79.3459 50.2441C79.4322 50.2868 79.5186 50.3293 79.6054 50.371C80.3122 50.7121 80.9414 51.1 81.4943 51.6602C81.5345 51.7004 81.5746 51.7406 81.616 51.782C82.0737 52.2636 82.3212 52.7734 82.4709 53.418C82.4796 53.4552 82.4883 53.4924 82.4972 53.5308C82.5223 53.6775 82.525 53.8143 82.5241 53.9632C82.5239 54.0227 82.5237 54.0823 82.5235 54.1437C82.5231 54.2079 82.5226 54.2722 82.5222 54.3384C82.5218 54.4413 82.5215 54.5442 82.5212 54.6472C82.521 54.7181 82.5207 54.789 82.5205 54.8599C82.5193 55.213 82.521 55.5661 82.5234 55.9192C82.5238 55.9819 82.5242 56.0446 82.5246 56.1092C82.5257 56.2744 82.5268 56.4395 82.528 56.6046C82.5292 56.7865 82.5304 56.9685 82.5315 57.1504C82.5336 57.4656 82.5357 57.7809 82.5378 58.0961C82.5432 58.9126 82.5484 59.7291 82.5536 60.5455C82.5545 60.6815 82.5554 60.8175 82.5562 60.9535C82.5847 65.4134 82.6131 69.8733 82.6349 76.7059C82.6354 77.0369 82.6364 77.368 82.6377 77.6991C82.6391 78.0915 82.6399 78.4839 82.6398 78.8763C82.6397 79.0689 82.6399 79.2615 82.641 79.4541C82.6421 79.6571 82.6417 79.86 82.6411 80.063C82.6416 80.1204 82.6422 80.1777 82.6427 80.2368C82.639 80.728 82.552 81.2547 82.2267 81.6406C81.511 82.3136 80.4805 82.7039 79.5018 82.6854C78.7004 82.6512 77.9473 82.342 77.1974 82.0801C77.1564 82.0658 77.1154 82.0514 77.0731 82.0367C76.6607 81.891 76.2634 81.7215 75.8692 81.5329C75.675 81.4403 75.4783 81.3539 75.2809 81.2683C75.0652 81.1748 74.8504 81.0802 74.637 80.9814C74.383 80.8652 74.1253 80.7591 73.8667 80.6535C73.6525 80.5659 73.4388 80.4771 73.2257 80.3866C72.5646 80.106 71.8986 79.8372 71.2327 79.5681C71.069 79.5019 70.9054 79.4353 70.7418 79.3686C69.6432 78.9226 68.5298 78.5139 67.4173 78.104C66.6811 77.8326 65.9483 77.5554 65.2209 77.2612C64.8324 77.1042 64.4422 76.9523 64.0505 76.8036C63.5697 76.6207 63.0959 76.4243 62.623 76.2221C62.1525 76.0214 61.6777 75.8339 61.2004 75.65C61.0476 75.5907 60.895 75.5307 60.7426 75.4704C59.6229 75.0276 58.4935 74.6205 57.3554 74.2277C55.7342 73.6681 54.1496 73.0418 52.5788 72.3532C52.4997 72.3185 52.4205 72.284 52.3414 72.2494C51.5761 71.9127 50.8452 71.4948 50.1913 70.9718C50.114 70.9112 50.0331 70.8553 49.9513 70.8008C49.9513 70.7686 49.9513 70.7363 49.9513 70.7031C49.903 70.687 49.8547 70.6709 49.8049 70.6543C49.8049 70.6221 49.8049 70.5898 49.8049 70.5566C49.7726 70.5566 49.7404 70.5566 49.7072 70.5566C49.7072 70.5244 49.7072 70.4922 49.7072 70.459C49.675 70.459 49.6427 70.459 49.6095 70.459C49.4631 70.29 49.4631 70.29 49.4631 70.166C49.4308 70.166 49.3986 70.166 49.3654 70.166C49.2901 70.0647 49.2218 69.9644 49.1548 69.8578C49.1351 69.8264 49.1154 69.795 49.0951 69.7626C48.4388 68.7002 48.4545 67.5728 48.4451 66.3631C48.4431 66.129 48.4399 65.8949 48.4369 65.6608C48.4317 65.2429 48.4272 64.825 48.4231 64.4071C48.4169 63.7821 48.4097 63.1571 48.4022 62.5321C48.3985 62.2242 48.3948 61.9163 48.3912 61.6084C48.3904 61.545 48.3897 61.4816 48.3889 61.4162C48.3838 60.9802 48.3788 60.5442 48.3739 60.1082C48.3462 57.6493 48.315 55.1903 48.283 52.7314C48.276 52.1889 48.2689 51.6463 48.2619 51.1037C48.2584 50.8313 48.2548 50.559 48.2513 50.2866C48.2506 50.2326 48.2499 50.1785 48.2492 50.1229C48.2449 49.7949 48.2407 49.467 48.2364 49.1391C48.2092 47.0439 48.1821 44.9488 48.1555 42.8537C48.1486 42.3151 48.1417 41.7765 48.1348 41.2379C48.1301 40.8731 48.1254 40.5082 48.1208 40.1434C48.1182 39.9348 48.1155 39.7262 48.1128 39.5177C48.0802 37.0215 48.0802 37.0215 48.1172 36.0596C48.1191 36.0003 48.1211 35.941 48.123 35.8799C48.1261 35.7959 48.1261 35.7959 48.1292 35.7101C48.131 35.6609 48.1328 35.6116 48.1347 35.5609C48.1447 35.4492 48.1447 35.4492 48.1935 35.4004ZM57.715 52.3926C57.6663 52.5965 57.6568 52.7951 57.6545 53.0037C57.6541 53.0402 57.6536 53.0767 57.6531 53.1143C57.6519 53.2359 57.6513 53.3574 57.6509 53.479C57.6508 53.5212 57.6507 53.5634 57.6505 53.6069C57.6496 56.6127 58.1098 59.563 59.3752 62.3047C59.3969 62.352 59.4187 62.3992 59.4411 62.448C59.9297 63.502 60.4456 64.5388 61.133 65.4785C61.167 65.5262 61.201 65.5739 61.236 65.6231C61.6123 66.1485 62.0124 66.6547 62.4215 67.1548C62.5585 67.3223 62.6932 67.4909 62.8236 67.6636C63.0188 67.9169 63.2381 68.1484 63.4559 68.3821C63.5664 68.501 63.6756 68.621 63.785 68.7408C63.9945 68.9696 64.2053 69.1973 64.4167 69.4244C64.4443 69.4542 64.472 69.484 64.5005 69.5147C64.5546 69.5728 64.6092 69.6305 64.6641 69.6878C64.721 69.7485 64.7759 69.8111 64.8291 69.875C64.9112 69.9688 64.9852 70.0467 65.0881 70.1172C65.2419 70.1178 65.3348 70.1053 65.4787 70.0684C65.5528 70.0581 65.627 70.0487 65.7013 70.0401C67.6422 69.7795 69.3356 68.8152 70.5372 67.2521C71.9144 65.3767 72.6131 62.9613 72.6158 60.6436C72.6159 60.5938 72.6161 60.5439 72.6163 60.4926C72.6165 60.3878 72.6166 60.2831 72.6166 60.1783C72.6167 60.0199 72.6176 59.8614 72.6186 59.703C72.6194 59.4565 72.6169 59.2104 72.6107 58.9641C72.6088 58.8856 72.6074 58.8072 72.607 58.7287C72.6047 58.5384 72.5951 58.375 72.5099 58.2031C72.3587 58.0923 72.1984 58.046 72.0204 57.992C71.8316 57.9273 71.6548 57.8354 71.476 57.7477C71.3944 57.7082 71.3129 57.6687 71.2313 57.6292C71.1901 57.6091 71.1489 57.589 71.1064 57.5683C70.9819 57.5078 70.8572 57.4477 70.7324 57.3877C70.0781 57.0709 69.4511 56.7241 68.86 56.2988C68.8253 56.274 68.7906 56.2492 68.7548 56.2237C68.3024 55.8979 67.8844 55.5399 67.4764 55.1609C67.3459 55.0402 67.2138 54.9216 67.0809 54.8035C66.4744 54.256 65.9935 53.6465 65.5173 52.9858C65.3812 52.7977 65.2385 52.6183 65.0881 52.4414C64.8964 52.4982 64.7311 52.5708 64.5586 52.6717C63.1553 53.4861 61.3023 53.5127 59.7597 53.1189C59.395 53.0203 59.0367 52.9024 58.6794 52.7802C58.6323 52.7641 58.5852 52.7481 58.5367 52.7316C58.2767 52.6402 58.0493 52.5331 57.8127 52.3926C57.7804 52.3926 57.7482 52.3926 57.715 52.3926Z" fill="#0088FF"/>
<path d="M82.578 19.0644C83.0557 19.3936 83.4063 19.7382 83.5965 20.2989C83.6144 20.4655 83.6144 20.4655 83.6138 20.6432C83.6139 20.6762 83.6139 20.7093 83.614 20.7433C83.6141 20.8535 83.6132 20.9636 83.6122 21.0737C83.6121 21.1534 83.612 21.2331 83.612 21.3127C83.6117 21.5308 83.6104 21.7488 83.609 21.9668C83.6079 22.1537 83.6074 22.3406 83.6068 22.5274C83.6051 23.1331 83.6015 23.7387 83.5975 24.3444C83.5965 24.4957 83.5955 24.6471 83.5946 24.7984C83.5856 26.2076 83.5735 27.6166 83.5602 29.0257C83.5565 29.4284 83.5528 29.8311 83.5491 30.2337C83.5483 30.3213 83.5483 30.3213 83.5475 30.4107C83.5465 30.5295 83.5454 30.6484 83.5443 30.7672C83.5344 31.8655 83.5242 32.9639 83.514 34.0622C83.5053 34.9993 83.4967 35.9364 83.4883 36.8734C83.4784 37.973 83.4685 39.0726 83.4583 40.1722C83.4572 40.2897 83.4561 40.4072 83.4551 40.5247C83.4545 40.5825 83.454 40.6402 83.4534 40.6998C83.4497 41.102 83.4461 41.5042 83.4425 41.9064C83.4381 42.3963 83.4336 42.8861 83.4289 43.376C83.4266 43.6247 83.4243 43.8734 83.4221 44.122C83.4175 44.6446 83.412 45.1672 83.4045 45.6897C83.4022 45.8537 83.4002 46.0176 83.3985 46.1816C83.3964 46.3819 83.3932 46.5821 83.3894 46.7824C83.3882 46.8555 83.3872 46.9286 83.3866 47.0017C83.3808 47.6456 83.2966 48.3043 82.9648 48.8694C82.9491 48.8984 82.9334 48.9273 82.9172 48.9572C82.8049 49.1582 82.6778 49.3295 82.5223 49.4981C82.49 49.4981 82.4578 49.4981 82.4246 49.4981C82.4246 49.5303 82.4246 49.5625 82.4246 49.5957C82.3924 49.5957 82.3602 49.5957 82.327 49.5957C82.327 49.628 82.327 49.6602 82.327 49.6934C82.1579 49.8399 82.1579 49.8399 82.034 49.8399C82.034 49.8721 82.034 49.9043 82.034 49.9375C81.3475 50.3499 80.7703 50.669 79.9557 50.484C79.7209 50.4248 79.4995 50.3391 79.2748 50.2498C79.2306 50.2324 79.1863 50.215 79.1407 50.1971C78.9963 50.1403 78.8519 50.0832 78.7076 50.026C78.6063 49.9861 78.505 49.9463 78.4036 49.9064C78.1479 49.8057 77.8923 49.7048 77.6367 49.6037C77.4237 49.5195 77.2106 49.4356 76.9974 49.3516C76.62 49.2028 76.2426 49.0537 75.8653 48.9045C73.9179 48.1343 73.9179 48.1343 71.968 47.3708C71.8036 47.3068 71.6393 47.2428 71.4749 47.1787C71.4119 47.1542 71.4119 47.1542 71.3477 47.1292C70.6036 46.8392 69.861 46.5454 69.1187 46.2508C68.297 45.9248 67.4733 45.6039 66.6488 45.2851C65.9982 45.0336 65.3488 44.7796 64.7019 44.5188C64.3284 44.3682 63.9527 44.2231 63.577 44.0782C63.577 44.0137 63.577 43.9493 63.577 43.8828C63.6211 43.864 63.6652 43.8451 63.7106 43.8257C64.5176 43.4804 65.3244 43.1344 66.1296 42.7849C66.6758 42.5478 67.2228 42.3127 67.7703 42.0785C67.824 42.0555 67.8777 42.0325 67.9331 42.0088C68.0316 41.9667 68.1302 41.9245 68.2287 41.8824C68.8563 41.6142 69.4825 41.3432 70.1081 41.0705C70.9563 40.7007 71.8057 40.3345 72.659 39.9766C72.8839 39.8822 73.1087 39.7875 73.3334 39.6928C73.3838 39.6717 73.4342 39.6505 73.4862 39.6288C73.7331 39.5247 73.9778 39.4175 74.2205 39.3041C74.664 39.0978 75.1145 38.9081 75.5643 38.7162C75.6515 38.6789 75.7387 38.6417 75.8259 38.6044C76.0007 38.5297 76.1754 38.455 76.3502 38.3804C77.077 38.0699 77.8034 37.7583 78.5282 37.4431C78.8216 37.3155 79.1152 37.1885 79.4097 37.0635C79.5434 37.0068 79.677 36.9497 79.8105 36.8926C79.874 36.8656 79.9375 36.8388 80.0011 36.812C80.4844 36.6113 80.4844 36.6113 80.9109 36.3145C80.9651 36.1215 80.9794 35.9674 80.9109 35.7774C80.4455 35.6573 80.1058 35.7528 79.678 35.9361C79.6249 35.9581 79.5717 35.9801 79.517 36.0028C79.4037 36.0498 79.2906 36.0972 79.1776 36.1448C79.0129 36.2142 78.8477 36.2826 78.6824 36.3505C78.2806 36.5158 77.8795 36.6826 77.4784 36.8495C77.1903 36.9693 76.9022 37.089 76.6141 37.2087C76.5718 37.2262 76.5295 37.2438 76.4859 37.2619C75.8696 37.5177 75.2521 37.7704 74.6335 38.0204C74.0119 38.2716 73.3918 38.5259 72.7735 38.7851C72.4293 38.9293 72.0849 39.0731 71.7404 39.2167C71.7024 39.2326 71.6644 39.2484 71.6252 39.2648C71.0969 39.4851 70.5675 39.7028 70.037 39.9178C69.5751 40.1054 69.115 40.2971 68.6551 40.4893C68.1433 40.7031 67.631 40.9157 67.117 41.1241C66.5726 41.3448 66.0302 41.5701 65.4882 41.7965C64.8683 42.0553 64.2477 42.3124 63.6261 42.567C63.3122 42.6956 62.999 42.8255 62.6876 42.9599C62.6338 42.9829 62.58 43.006 62.5245 43.0297C62.4262 43.072 62.328 43.1148 62.2301 43.1581C62.187 43.1766 62.1438 43.1951 62.0993 43.2141C62.0626 43.2302 62.0259 43.2463 61.988 43.2629C61.7041 43.3433 61.4923 43.3001 61.2345 43.1685C61.0035 43.056 60.7719 42.9531 60.5315 42.8622C60.4846 42.8445 60.4846 42.8445 60.4368 42.8264C60.3714 42.8017 60.3059 42.7771 60.2403 42.7525C60.0579 42.6841 59.8757 42.6148 59.6936 42.5456C59.6366 42.524 59.6366 42.524 59.5784 42.5019C59.1612 42.3431 58.746 42.1795 58.331 42.0152C58.2739 41.9926 58.2739 41.9926 58.2157 41.9696C58.0183 41.8914 57.8209 41.8132 57.6235 41.7349C57.3204 41.6148 57.0172 41.4949 56.714 41.3751C56.4907 41.2868 56.2674 41.1984 56.0442 41.1098C55.637 40.9482 55.2295 40.7881 54.8196 40.6337C53.8143 40.2535 52.8857 39.8486 52.1221 39.0699C52.0541 39.0006 51.9846 38.9328 51.915 38.865C51.7051 38.6593 51.4977 38.4542 51.3211 38.2188C51.3211 38.1866 51.3211 38.1543 51.3211 38.1211C51.2889 38.1211 51.2566 38.1211 51.2234 38.1211C51.0809 37.9343 50.9591 37.7332 50.8328 37.5352C50.8063 37.4961 50.7797 37.457 50.7523 37.4167C49.9575 36.1993 49.8591 34.4273 50.1492 33.043C50.1617 32.9829 50.1743 32.9228 50.1872 32.8609C50.3441 32.2002 50.6528 31.5735 51.077 31.0411C51.1092 31.0411 51.1414 31.0411 51.1746 31.0411C51.1876 31.0125 51.2007 30.984 51.2141 30.9547C51.3164 30.7632 51.4674 30.6137 51.6141 30.4551C51.6509 30.4151 51.6877 30.3751 51.7256 30.3338C51.7633 30.2943 51.801 30.2548 51.8399 30.214C51.8922 30.159 51.8922 30.159 51.9456 30.1028C52.0654 30.0061 52.1463 29.9836 52.2977 29.9668C52.2977 29.9346 52.2977 29.9024 52.2977 29.8692C53.1804 29.5149 54.0643 29.1638 54.9499 28.8167C55.2734 28.6897 55.5967 28.5623 55.9201 28.4349C55.9882 28.408 56.0563 28.3812 56.1243 28.3544C56.2614 28.3003 56.3986 28.2463 56.5357 28.1923C56.7387 28.1123 56.9418 28.0323 57.1448 27.9523C57.1945 27.9327 57.1945 27.9327 57.2452 27.9128C57.4136 27.8464 57.5821 27.78 57.7505 27.7137C58.0723 27.587 58.394 27.4602 58.7157 27.3334C59.9294 26.8549 61.1437 26.3781 62.3579 25.9012C62.4135 25.8794 62.4691 25.8575 62.5264 25.835C62.6434 25.7891 62.7604 25.7431 62.8775 25.6972C63.537 25.4381 64.1964 25.179 64.8556 24.9192C64.9228 24.8927 64.99 24.8663 65.0572 24.8398C65.1952 24.7854 65.3332 24.731 65.4712 24.6767C65.7747 24.5571 66.0782 24.4375 66.3818 24.3179C66.5495 24.2518 66.7173 24.1858 66.8851 24.1197C66.9522 24.0932 67.0193 24.0668 67.0865 24.0403C67.1197 24.0272 67.1529 24.0141 67.1872 24.0006C67.4893 23.8816 67.4893 23.8816 67.59 23.8419C67.6571 23.8155 67.7242 23.7891 67.7913 23.7627C67.96 23.6962 68.1287 23.6297 68.2974 23.5633C68.6192 23.4365 68.9409 23.3098 69.2626 23.183C70.0691 22.865 70.8759 22.5479 71.6828 22.231C72.7184 21.8243 73.7537 21.4168 74.7885 21.008C75.166 20.8588 75.5437 20.7101 75.9213 20.5613C75.9542 20.5484 75.9871 20.5354 76.021 20.522C76.1854 20.4573 76.3498 20.3926 76.5142 20.3278C76.7477 20.2359 76.9812 20.1439 77.2146 20.0519C77.382 19.986 77.5494 19.92 77.7169 19.8543C78.0276 19.7322 78.338 19.6095 78.6476 19.485C78.7916 19.4271 78.9357 19.3696 79.0798 19.312C79.1475 19.2849 79.2152 19.2576 79.2827 19.2302C80.281 18.8249 81.5653 18.473 82.578 19.0644ZM78.8113 25.7188C78.702 25.7639 78.5926 25.809 78.4833 25.854C78.2127 25.9656 77.9424 26.0776 77.6721 26.1899C77.3439 26.3261 77.0156 26.4619 76.6873 26.5977C76.5693 26.6465 76.4513 26.6953 76.3333 26.7442C76.0973 26.8418 75.8613 26.9395 75.6253 27.0371C75.5377 27.0734 75.5377 27.0734 75.4484 27.1104C75.3302 27.1593 75.212 27.2082 75.0938 27.2571C74.8018 27.3779 74.5098 27.4987 74.2179 27.6197C73.631 27.8627 73.044 28.1052 72.4566 28.3468C71.7943 28.6192 71.1324 28.8928 70.4709 29.1673C70.4069 29.1938 70.4069 29.1938 70.3416 29.2209C70.173 29.2908 70.0045 29.3608 69.8359 29.4307C69.2472 29.675 68.6582 29.9188 68.0691 30.1621C68.002 30.1899 67.9348 30.2177 67.8676 30.2455C67.6541 30.3338 67.4405 30.4219 67.2269 30.51C67.1918 30.5245 67.1568 30.539 67.1207 30.5538C66.6103 30.7643 66.0988 30.9717 65.5851 31.1737C65.3116 31.2819 65.0437 31.3986 64.7765 31.5216C64.6017 31.6005 64.424 31.6704 64.2453 31.7399C63.7597 31.9314 63.2794 32.1346 62.7988 32.3381C62.1711 32.6036 61.5418 32.8645 60.9097 33.1193C60.3131 33.3599 59.718 33.6036 59.1244 33.8517C59.0883 33.8668 59.0522 33.8819 59.015 33.8975C58.979 33.9125 58.9431 33.9275 58.906 33.943C58.8335 33.9733 58.7611 34.0036 58.6886 34.0339C58.6529 34.0488 58.6171 34.0637 58.5803 34.0791C58.2167 34.231 57.8525 34.3813 57.4881 34.5313C57.3833 34.5744 57.2786 34.6176 57.1739 34.6608C56.8707 34.7858 56.5673 34.9098 56.2623 35.0303C56.2126 35.05 56.1629 35.0698 56.1118 35.0902C56.0225 35.1256 55.9331 35.1606 55.8434 35.195C55.5662 35.3054 55.3306 35.4242 55.1621 35.6818C55.0997 35.8657 55.0833 36.027 55.1297 36.2168C55.2775 36.4247 55.4786 36.5627 55.7217 36.638C56.3392 36.7205 56.968 36.3915 57.5192 36.1527C57.632 36.1046 57.7448 36.0566 57.8576 36.0086C57.9318 35.977 58.0059 35.9453 58.0801 35.9135C58.3129 35.8139 58.5471 35.7185 58.7828 35.6257C59.0653 35.5139 59.3404 35.3909 59.6154 35.2619C59.8666 35.1462 60.1226 35.0426 60.3787 34.9381C60.5035 34.8868 60.6284 34.8355 60.7531 34.784C60.7867 34.7702 60.8202 34.7564 60.8548 34.7421C61.3207 34.5496 61.785 34.3531 62.2494 34.1569C62.2964 34.1371 62.3433 34.1172 62.3916 34.0968C63.0895 33.8019 63.7868 33.5056 64.4839 33.2088C65.1683 32.9175 65.8541 32.6297 66.5405 32.3429C67.1697 32.0799 67.7983 31.8153 68.4259 31.5484C69.0379 31.2882 69.6506 31.0297 70.2634 30.7713C70.7703 30.5575 71.277 30.3432 71.7831 30.1274C71.8266 30.1089 71.8702 30.0903 71.915 30.0712C72.1192 29.9842 72.3234 29.8971 72.5275 29.8097C72.9188 29.6426 73.3115 29.4803 73.7071 29.3235C73.9993 29.2076 74.2878 29.0879 74.5727 28.9551C74.8561 28.8259 75.1444 28.708 75.4316 28.5878C75.6367 28.5019 75.8418 28.4157 76.0468 28.3296C76.0894 28.3117 76.1319 28.2938 76.1758 28.2754C76.4746 28.1497 76.7732 28.0233 77.0714 27.8962C77.1128 27.8786 77.1541 27.861 77.1967 27.8429C77.3621 27.7724 77.5275 27.7019 77.6928 27.6314C78.105 27.4557 78.5174 27.2807 78.9321 27.1108C78.9804 27.0909 78.9804 27.0909 79.0297 27.0707C79.1764 27.0106 79.3232 26.9508 79.4702 26.8915C80.3639 26.5649 80.3639 26.5649 81.03 25.9385C81.079 25.7204 81.0949 25.5846 80.975 25.3892C80.8271 25.2453 80.7103 25.1858 80.5035 25.1765C79.9158 25.1999 79.3459 25.4968 78.8113 25.7188Z" fill="#0088FF"/>
<path d="M58.3007 53.418C58.4943 53.4514 58.6711 53.5082 58.8561 53.5736C59.3629 53.7466 59.8798 53.8796 60.4003 54.0039C60.4549 54.0174 60.4549 54.0174 60.5106 54.0311C61.8378 54.3472 63.7374 54.2996 64.9284 53.5816C65.039 53.5156 65.039 53.5156 65.1367 53.5156C65.2199 53.6251 65.299 53.7357 65.3777 53.8483C65.8222 54.4633 66.3766 54.992 66.9498 55.4867C67.0639 55.5865 67.1737 55.6903 67.2835 55.7948C67.6411 56.134 68.0142 56.4425 68.4081 56.7383C68.4409 56.7632 68.4736 56.7881 68.5073 56.8138C69.525 57.5867 70.6396 58.1759 71.8261 58.6426C71.8571 61.2422 71.8571 61.2422 71.6796 62.2559C71.672 62.3025 71.6644 62.3491 71.6566 62.3971C71.4186 63.8248 70.932 65.2811 70.0683 66.4551C70.0404 66.4933 70.0124 66.5315 69.9836 66.5709C69.768 66.8562 69.5304 67.121 69.2871 67.3828C69.2601 67.4124 69.2332 67.442 69.2054 67.4725C68.2692 68.4597 66.7539 69.1966 65.3871 69.243C65.3457 69.2425 65.3044 69.2419 65.2618 69.2413C65.2195 69.2409 65.1773 69.2405 65.1338 69.24C65.0869 69.2391 65.0869 69.2391 65.039 69.2383C65.039 69.2061 65.039 69.1738 65.039 69.1406C64.9977 69.1231 64.9977 69.1231 64.9556 69.1052C64.8196 69.0295 64.726 68.938 64.6158 68.828C64.5721 68.7845 64.5285 68.741 64.4835 68.6961C64.4382 68.6505 64.3929 68.6048 64.3463 68.5577C64.3019 68.5138 64.2576 68.4698 64.2119 68.4245C63.9494 68.1613 63.7064 67.8896 63.4741 67.5994C63.398 67.5044 63.3209 67.4116 63.2408 67.3201C62.8659 66.8902 62.5333 66.4342 62.207 65.9668C62.1859 65.9367 62.1648 65.9067 62.1431 65.8757C61.4839 64.9293 60.9151 63.9216 60.4003 62.8906C60.3739 62.8383 60.3739 62.8383 60.3469 62.7849C58.9425 59.9918 57.9145 56.5629 58.3007 53.418ZM59.1308 54.3945C59.0203 54.505 59.0414 54.7322 59.0331 54.8828C59.034 55.1123 59.0461 55.3405 59.0606 55.5695C59.0627 55.6021 59.0647 55.6347 59.0669 55.6683C59.1183 56.4452 59.2579 57.1992 59.4238 57.959C59.4351 58.0116 59.4464 58.0643 59.4581 58.1185C59.7078 59.256 60.0854 60.3783 60.5956 61.4258C60.6116 61.4586 60.6276 61.4914 60.644 61.5253C60.74 61.7214 60.8383 61.9162 60.9374 62.1107C60.9868 62.2081 61.0355 62.3058 61.0839 62.4037C61.3036 62.8472 61.5308 63.286 61.7675 63.7207C61.7868 63.7561 61.8061 63.7915 61.8259 63.828C62.5244 65.1069 63.3139 66.3504 64.2639 67.4591C64.3028 67.5049 64.3028 67.5049 64.3426 67.5516C64.4649 67.6911 64.5693 67.8064 64.746 67.8711C64.746 67.9033 64.746 67.9355 64.746 67.9688C64.8217 68.0369 64.9006 68.1015 64.981 68.1641C65.0246 68.1983 65.0683 68.2325 65.1132 68.2678C65.2752 68.4101 65.2752 68.4101 65.4731 68.4474C65.525 68.432 65.525 68.432 65.5778 68.4162C65.6364 68.399 65.6364 68.399 65.6962 68.3813C65.7382 68.3681 65.7801 68.3548 65.8233 68.3411C65.8668 68.3276 65.9103 68.314 65.955 68.3001C66.9801 67.9712 67.864 67.48 68.6523 66.748C68.6796 66.7231 68.7069 66.6982 68.7351 66.6725C70.0219 65.4899 70.7024 63.8127 70.9472 62.1094C70.9526 62.0738 70.958 62.0383 70.9635 62.0017C71.0764 61.2515 71.0975 60.4987 71.0998 59.7412C71.1001 59.6612 71.1001 59.6612 71.1005 59.5795C71.1004 59.5296 71.1003 59.4798 71.1002 59.4284C71.1001 59.3617 71.1001 59.3617 71.1 59.2937C71.0983 59.172 71.0983 59.172 71.0449 59.0332C70.916 58.9774 70.7897 58.9295 70.6573 58.8837C69.9612 58.6274 69.3361 58.2586 68.7367 57.8241C68.6429 57.757 68.548 57.6917 68.4528 57.6265C68.015 57.3254 67.6046 57.0064 67.2078 56.653C67.1209 56.5762 67.032 56.5018 66.9433 56.427C66.5385 56.0712 66.1518 55.6809 65.8029 55.2702C65.7028 55.1525 65.5999 55.0375 65.4968 54.9225C65.4445 54.864 65.4445 54.864 65.3911 54.8044C65.2769 54.6807 65.1588 54.5617 65.039 54.4434C64.9811 54.4761 64.9811 54.4761 64.9221 54.5095C63.5767 55.2307 61.9871 55.2493 60.5438 54.8299C60.2814 54.7481 60.0227 54.6572 59.7678 54.5544C59.5533 54.4678 59.3623 54.4127 59.1308 54.3945Z" fill="#0088FF"/>
<path d="M46.2403 65.0879C46.2403 65.2812 46.2403 65.4746 46.2403 65.6738C45.0361 65.6806 43.8319 65.6871 42.6277 65.6935C42.4225 65.6946 42.2172 65.6957 42.012 65.6968C39.2539 65.7117 36.4958 65.7243 33.7376 65.7339C33.376 65.7352 33.0143 65.7364 32.6526 65.7377C32.3286 65.7389 32.0047 65.74 31.6807 65.7412C31.6275 65.7413 31.6275 65.7413 31.5731 65.7415C30.7187 65.7445 29.8644 65.7474 29.01 65.75C28.4331 65.7518 27.8562 65.7537 27.2793 65.7558C26.9035 65.7571 26.5278 65.7582 26.152 65.7592C25.9212 65.7599 25.6903 65.7607 25.4595 65.7616C25.3543 65.762 25.2491 65.7623 25.1439 65.7625C24.8192 65.7632 24.4947 65.7658 24.17 65.7715C24.0987 65.7726 24.0987 65.7726 24.0259 65.7738C23.8844 65.7766 23.743 65.7807 23.6015 65.7853C23.5589 65.7861 23.5163 65.7869 23.4724 65.7877C23.2315 65.7974 23.0882 65.8197 22.9104 65.9984C22.8319 66.109 22.8319 66.109 22.7662 66.2292C22.7124 66.3102 22.6584 66.3911 22.6045 66.472C22.58 66.5113 22.5555 66.5506 22.5303 66.5911C22.4398 66.7325 22.3383 66.8555 22.2291 66.983C22.0553 67.1934 21.8879 67.4081 21.7222 67.6248C21.5055 67.9081 21.2849 68.1883 21.0641 68.4684C20.9742 68.5826 20.8845 68.6968 20.7947 68.8111C20.7499 68.8681 20.7051 68.9251 20.6603 68.9821C20.5494 69.1232 20.4387 69.2643 20.3282 69.4057C20.086 69.7156 19.8409 70.0229 19.5924 70.3277C19.3731 70.5967 19.1564 70.867 18.9454 71.1426C18.6896 71.4763 18.4333 71.8091 18.1697 72.1367C18.0259 72.3163 17.8842 72.4976 17.7423 72.6787C17.6202 72.8344 17.4974 72.9895 17.3734 73.1438C17.3345 73.1921 17.3345 73.1921 17.2948 73.2415C17.2453 73.303 17.1957 73.3645 17.146 73.4259C17.1004 73.4825 17.0551 73.5394 17.0102 73.5966C16.964 73.6555 16.9169 73.7137 16.8692 73.7714C16.7892 73.8693 16.7892 73.8693 16.6993 74.0234C16.7116 74.1415 16.7116 74.1415 16.7817 74.2432C16.9767 74.6497 16.954 75.1135 16.8153 75.5371C16.6615 75.899 16.4636 76.1203 16.1052 76.2829C15.7574 76.4208 15.3436 76.4305 14.9934 76.2909C14.7083 76.1413 14.5286 75.9267 14.4105 75.6287C14.2632 75.1059 14.3425 74.6412 14.5997 74.1699C14.7603 73.91 14.984 73.7535 15.2707 73.6513C15.381 73.6328 15.381 73.6328 15.5521 73.6397C15.9144 73.6576 15.9144 73.6576 16.244 73.529C16.3999 73.383 16.5214 73.2118 16.6407 73.0355C16.7285 72.9063 16.8242 72.7834 16.9191 72.6593C16.9544 72.6114 16.9898 72.5635 17.0262 72.5141C17.215 72.2611 17.4115 72.0143 17.6072 71.7667C17.6975 71.6523 17.7875 71.5377 17.8775 71.4231C17.9447 71.3376 18.0119 71.2521 18.0791 71.1666C18.1675 71.0541 18.2558 70.9414 18.3438 70.8286C18.6093 70.489 18.879 70.1533 19.1517 69.8194C19.3183 69.615 19.4813 69.4083 19.6412 69.1986C19.7885 69.0054 19.9382 68.8153 20.0929 68.6279C20.2706 68.4124 20.4423 68.1928 20.612 67.9709C20.8285 67.6879 21.0489 67.408 21.2694 67.1281C21.3389 67.0398 21.4083 66.9515 21.4776 66.863C21.7065 66.5713 21.9361 66.2804 22.1696 65.9923C22.2411 65.9008 22.3098 65.8071 22.3771 65.7123C22.3962 65.6857 22.4152 65.659 22.4349 65.6315C22.4886 65.556 22.5414 65.4799 22.5942 65.4037C22.7538 65.2304 22.9149 65.1926 23.147 65.1729C23.2268 65.1726 23.2268 65.1726 23.3082 65.1723C23.3701 65.1718 23.432 65.1713 23.4957 65.1708C23.5642 65.1708 23.6326 65.1708 23.7011 65.1707C23.7743 65.1704 23.8474 65.1699 23.9206 65.1695C24.1227 65.1684 24.3249 65.1678 24.527 65.1674C24.7475 65.1668 24.9681 65.1656 25.1887 65.1646C25.5758 65.1628 25.9629 65.1613 26.35 65.1601C26.9181 65.1583 27.4862 65.156 28.0543 65.1535C29.021 65.1494 29.9876 65.1457 30.9543 65.1422C32.0148 65.1384 33.0752 65.1344 34.1357 65.13C34.171 65.1299 34.2062 65.1297 34.2425 65.1296C34.5657 65.1283 34.8888 65.127 35.212 65.1256C37.5891 65.1159 39.9663 65.1065 42.3434 65.0976C42.529 65.0969 42.7145 65.0961 42.9 65.0954C43.1895 65.0943 43.479 65.0932 43.7685 65.0922C43.8729 65.0918 43.9772 65.0914 44.0816 65.091C44.8012 65.0882 45.5207 65.0874 46.2403 65.0879Z" fill="#0088FF"/>
<path d="M16.3643 23.6756C16.6899 23.8726 16.8762 24.1184 16.9981 24.478C17.1185 24.984 17.0638 25.4593 16.8457 25.9278C16.8664 25.9509 16.8871 25.974 16.9084 25.9978C17.1263 26.2434 17.33 26.4969 17.5293 26.7578C17.6096 26.8626 17.6899 26.9674 17.7703 27.0722C17.7913 27.0995 17.8123 27.1268 17.8339 27.155C17.9886 27.356 18.1461 27.5546 18.3052 27.7521C18.4251 27.902 18.5432 28.0532 18.6615 28.2044C18.86 28.458 19.0619 28.7087 19.2657 28.9582C19.4983 29.2431 19.7252 29.5315 19.9484 29.8239C20.0754 29.9902 20.2044 30.1548 20.3338 30.3192C20.3562 30.3476 20.3785 30.376 20.4016 30.4053C20.4469 30.4628 20.4922 30.5203 20.5375 30.5779C20.6498 30.7204 20.7619 30.8632 20.874 31.0059C20.9187 31.0629 20.9635 31.1198 21.0083 31.1768C21.2768 31.5186 21.2768 31.5186 21.344 31.6041C21.3887 31.6609 21.4333 31.7178 21.478 31.7746C21.5913 31.9187 21.7045 32.0629 21.8174 32.2073C22.0536 32.5091 22.29 32.81 22.5391 33.1015C22.6329 33.222 22.7101 33.3379 22.7886 33.4681C22.8254 33.5248 22.8254 33.5248 22.8629 33.5827C22.937 33.6975 22.937 33.6975 22.9975 33.8099C23.0859 33.9422 23.1523 34.0011 23.291 34.0821C23.4424 34.1102 23.5929 34.1132 23.7466 34.1164C23.7919 34.1179 23.8371 34.1194 23.8838 34.121C24.028 34.1254 24.1721 34.1284 24.3164 34.1309C24.3613 34.1317 24.4063 34.1325 24.4526 34.1333C24.786 34.1385 25.1193 34.1395 25.4527 34.1401C25.5632 34.1405 25.6736 34.1409 25.7841 34.1414C26.0215 34.1422 26.2589 34.143 26.4962 34.1436C26.8462 34.1445 27.1961 34.1457 27.5461 34.1469C28.1283 34.149 28.7105 34.1509 29.2927 34.1527C30.1501 34.1553 31.0075 34.1582 31.8649 34.1612C31.9004 34.1613 31.936 34.1614 31.9727 34.1616C32.3686 34.163 32.7645 34.1644 33.1604 34.1658C33.4493 34.1668 33.7382 34.1678 34.0271 34.1688C36.7024 34.1781 39.3776 34.191 42.0529 34.2064C42.2452 34.2075 42.4376 34.2086 42.63 34.2097C43.7032 34.2158 44.7764 34.2221 45.8496 34.2285C45.8496 34.4219 45.8496 34.6153 45.8496 34.8145C42.3238 34.8022 38.7981 34.7895 35.2724 34.7758C35.1962 34.7755 35.12 34.7752 35.0438 34.775C35.0062 34.7748 34.9686 34.7747 34.9298 34.7745C34.7785 34.7739 34.6273 34.7733 34.476 34.7728C34.3635 34.7723 34.2509 34.7719 34.1383 34.7715C33.114 34.7675 32.0897 34.7637 31.0655 34.7601C30.0425 34.7565 29.0195 34.7526 27.9965 34.7482C27.4343 34.7457 26.8721 34.7436 26.3099 34.7418C25.9308 34.7406 25.5518 34.739 25.1727 34.7371C24.9574 34.7361 24.7422 34.7352 24.527 34.7347C24.3326 34.7343 24.1382 34.7334 23.9439 34.7322C23.874 34.7318 23.8041 34.7316 23.7342 34.7316C23.6396 34.7315 23.5449 34.7308 23.4503 34.7301C23.3979 34.7299 23.3455 34.7297 23.2915 34.7295C23.0503 34.7087 22.8959 34.6671 22.7298 34.4879C22.6904 34.4345 22.6516 34.3806 22.6135 34.3262C22.5709 34.2682 22.5283 34.2102 22.4857 34.1522C22.4649 34.1236 22.4442 34.095 22.4228 34.0655C22.3412 33.9543 22.2549 33.8473 22.1679 33.7403C22.022 33.559 21.8791 33.3756 21.7376 33.1909C21.4995 32.8802 21.2579 32.5721 21.0156 32.2646C20.9467 32.1771 20.878 32.0893 20.8093 32.0015C20.6045 31.7397 20.3988 31.479 20.1873 31.2226C20.0127 31.0105 19.8448 30.7941 19.6783 30.5756C19.5113 30.3575 19.3389 30.1442 19.165 29.9317C18.9313 29.6458 18.7033 29.3564 18.4793 29.0629C18.3523 28.8966 18.2233 28.7319 18.0938 28.5675C18.0603 28.5249 18.0603 28.5249 18.0261 28.4815C17.9808 28.424 17.9355 28.3664 17.8902 28.3089C17.8002 28.1948 17.7105 28.0805 17.6207 27.9662C17.5761 27.9094 17.5314 27.8526 17.4868 27.7958C17.3505 27.6224 17.2145 27.4489 17.0788 27.2751C17.0335 27.2175 16.9879 27.1601 16.942 27.1029C16.8352 26.9697 16.737 26.8385 16.6441 26.6949C16.4895 26.4679 16.3979 26.3369 16.1213 26.2797C15.9842 26.2696 15.848 26.269 15.7106 26.2703C15.4025 26.269 15.1489 26.1752 14.9145 25.9665C14.5637 25.5325 14.4601 25.0542 14.5019 24.5117C14.5727 24.1592 14.704 23.9273 14.9807 23.6983C15.3959 23.4448 15.9392 23.4522 16.3643 23.6756Z" fill="#0088FF"/>
<path d="M10.5206 48.8688C10.5958 48.9258 10.5958 48.9258 10.6446 49.0723C10.693 49.0884 10.7413 49.1045 10.7911 49.1211C10.8481 49.2079 10.8481 49.2079 10.8979 49.3134C10.9147 49.348 10.9315 49.3827 10.9488 49.4185C10.9864 49.5117 10.9864 49.5117 10.9864 49.6094C11.0384 49.6093 11.0904 49.6093 11.1439 49.6092C13.9759 49.607 16.8079 49.6091 19.6399 49.6176C19.6932 49.6177 19.6932 49.6177 19.7475 49.6179C20.7591 49.6209 21.7706 49.6242 22.7822 49.6275C23.2183 49.6289 23.6544 49.6303 24.0905 49.6317C25.4586 49.6361 26.8266 49.6405 28.1947 49.645C28.2365 49.6452 28.2783 49.6453 28.3214 49.6455C28.4906 49.646 28.6599 49.6466 28.8292 49.6472C28.9565 49.6476 29.0838 49.648 29.2111 49.6484C29.2532 49.6486 29.2953 49.6487 29.3386 49.6488C30.7155 49.6534 32.0924 49.6578 33.4693 49.662C34.9374 49.6666 36.4056 49.6713 37.8737 49.6762C38.0345 49.6767 38.1952 49.6772 38.356 49.6778C38.4154 49.678 38.4154 49.678 38.4759 49.6782C39.1103 49.6803 39.7448 49.6822 40.3792 49.6841C41.0136 49.686 41.648 49.6881 42.2824 49.6904C42.6585 49.6917 43.0347 49.6929 43.4108 49.6939C43.6915 49.6947 43.9721 49.6957 44.2528 49.6968C44.3662 49.6972 44.4797 49.6976 44.5932 49.6978C44.7473 49.6982 44.9015 49.6988 45.0556 49.6995C45.0997 49.6995 45.1437 49.6996 45.189 49.6996C45.4773 49.7013 45.7586 49.7236 46.045 49.7559C46.045 49.9331 46.045 50.1104 46.045 50.293C43.1051 50.2954 40.1652 50.2936 37.2253 50.2848C37.1897 50.2847 37.1542 50.2846 37.1175 50.2845C36.1443 50.2815 35.1712 50.2784 34.198 50.2752C33.723 50.2737 33.248 50.2722 32.773 50.2706C31.4047 50.2663 30.0364 50.2618 28.6681 50.2573C28.6263 50.2572 28.5845 50.257 28.5415 50.2569C28.3723 50.2563 28.203 50.2558 28.0338 50.2552C27.9065 50.2548 27.7793 50.2544 27.652 50.2539C27.589 50.2537 27.589 50.2537 27.5246 50.2535C26.1473 50.2489 24.77 50.2446 23.3927 50.2403C21.9241 50.2358 20.4555 50.2311 18.9869 50.2262C18.8262 50.2256 18.6654 50.2251 18.5047 50.2246C18.4651 50.2244 18.4256 50.2243 18.3848 50.2242C17.75 50.2221 17.1153 50.2201 16.4805 50.2182C15.8462 50.2163 15.2119 50.2142 14.5775 50.212C14.2012 50.2106 13.8249 50.2094 13.4486 50.2084C13.1682 50.2077 12.8878 50.2066 12.6074 50.2055C12.4938 50.2051 12.3801 50.2048 12.2665 50.2045C12.1126 50.2042 11.9587 50.2036 11.8049 50.2028C11.7604 50.2028 11.7159 50.2028 11.67 50.2028C11.4529 50.2014 11.2489 50.1903 11.0352 50.1465C11.0302 50.2049 11.0252 50.2633 11.02 50.3235C10.9763 50.654 10.8446 50.8566 10.5864 51.0616C10.3103 51.2537 9.99296 51.2568 9.66805 51.2207C9.31226 51.1229 9.03537 50.9811 8.82882 50.6683C8.62064 50.2714 8.58731 49.8868 8.69759 49.4568C8.79948 49.1506 8.95777 48.959 9.22555 48.7823C9.63521 48.6364 10.1352 48.6804 10.5206 48.8688Z" fill="#0088FF"/>
<path d="M46.1424 57.3242C46.1424 57.5015 46.1424 57.6787 46.1424 57.8613C44.4872 57.9206 42.8309 57.9279 41.1748 57.942C40.7502 57.9456 40.3255 57.9495 39.9009 57.9534C39.1435 57.9603 38.3861 57.9671 37.6287 57.9737C37.5837 57.9741 37.5386 57.9745 37.4923 57.9749C36.9882 57.9794 36.4842 57.9838 35.9802 57.9882C35.7964 57.9898 35.6125 57.9914 35.4286 57.9931C35.3605 57.9936 35.3605 57.9936 35.291 57.9943C34.5342 58.0009 33.7773 58.0077 33.0205 58.0146C32.5552 58.0189 32.09 58.023 31.6248 58.0269C31.3071 58.0296 30.9893 58.0324 30.6715 58.0354C30.4884 58.0371 30.3053 58.0387 30.1222 58.0401C29.9237 58.0417 29.7252 58.0436 29.5267 58.0455C29.469 58.0459 29.4114 58.0463 29.3519 58.0467C28.8971 58.0516 28.5367 58.0699 28.1371 58.2977C27.7051 58.5345 27.2667 58.7562 26.8256 58.9752C26.014 59.3777 26.014 59.3777 25.2114 59.7977C24.852 59.9904 24.486 60.17 24.1209 60.3516C24.049 60.3874 23.977 60.4232 23.9051 60.4591C23.869 60.477 23.833 60.4949 23.7959 60.5134C23.6476 60.5873 23.4994 60.6612 23.3512 60.7351C23.2763 60.7724 23.2014 60.8097 23.1265 60.8469C22.6775 61.0702 22.2318 61.2982 21.7902 61.5356C21.595 61.6402 21.3984 61.7417 21.2004 61.8408C21.1673 61.8577 21.1341 61.8746 21.1 61.8919C20.8611 62.0117 20.8611 62.0117 20.7518 62.0117C20.7541 62.0413 20.7563 62.0709 20.7587 62.1014C20.7808 62.6143 20.6016 62.9826 20.2744 63.3722C19.977 63.6581 19.5829 63.7365 19.1828 63.7312C18.8789 63.7084 18.5697 63.6655 18.3287 63.4705C18.13 63.0549 18.1206 62.6345 18.2639 62.1977C18.4046 61.8438 18.5357 61.5588 18.8933 61.3892C18.934 61.3693 18.9747 61.3494 19.0167 61.3289C19.3239 61.2058 19.687 61.1655 20.0028 61.2759C20.0837 61.3113 20.1639 61.3484 20.2429 61.3878C20.4878 61.4664 20.6898 61.3703 20.9105 61.2586C20.9417 61.2423 20.9729 61.2259 21.0051 61.2091C21.0554 61.1834 21.0554 61.1834 21.1068 61.1571C21.4073 61.0028 21.7061 60.8452 22.0042 60.6862C22.3807 60.4862 22.7627 60.2973 23.1444 60.1074C24.2938 59.5377 24.2938 59.5377 25.4328 58.9475C25.749 58.7795 26.0686 58.6192 26.3894 58.4602C26.5422 58.3841 26.6948 58.3075 26.8473 58.2308C26.9386 58.1849 27.0299 58.1391 27.1212 58.0933C27.181 58.0632 27.2408 58.0332 27.3006 58.0031C27.3859 57.9601 27.4713 57.9173 27.5567 57.8745C27.6309 57.8372 27.6309 57.8372 27.7066 57.7991C27.7928 57.7574 27.7928 57.7574 27.8807 57.7148C27.9352 57.6849 27.9352 57.6849 27.9908 57.6544C28.3685 57.4601 28.6913 57.4356 29.1114 57.438C29.1806 57.4375 29.2498 57.4369 29.3191 57.4362C29.4693 57.4349 29.6195 57.4343 29.7697 57.4344C30.0157 57.4344 30.2617 57.4328 30.5077 57.431C30.823 57.4287 31.1382 57.4269 31.4535 57.4256C32.0999 57.4228 32.7462 57.4168 33.3926 57.4096C33.4973 57.4085 33.602 57.4074 33.7067 57.4062C33.866 57.4045 34.0253 57.4027 34.1846 57.401C34.7869 57.3944 35.3892 57.3886 35.9915 57.3829C36.215 57.3807 36.4384 57.3786 36.6619 57.3765C36.7173 57.3759 36.7728 57.3754 36.83 57.3749C37.2229 57.3711 37.6158 57.3672 38.0088 57.3633C40.7201 57.336 43.431 57.3165 46.1424 57.3242Z" fill="#0088FF"/>
<path d="M20.3247 36.4319C20.6623 36.7848 20.9055 37.1746 20.9076 37.6709C20.9053 37.7441 20.9025 37.8174 20.8985 37.8906C20.9368 37.9016 20.9752 37.9125 21.0148 37.9238C21.2463 38.0083 21.4567 38.1221 21.6736 38.2385C22.0773 38.454 22.4847 38.6607 22.8945 38.8644C23.0665 38.95 23.2382 39.036 23.41 39.122C23.4796 39.1568 23.5492 39.1915 23.6187 39.2263C23.7583 39.2961 23.8979 39.3659 24.0376 39.4357C24.0721 39.453 24.1065 39.4702 24.1421 39.488C24.2113 39.5226 24.2805 39.5572 24.3496 39.5918C24.5218 39.6779 24.6939 39.7639 24.8662 39.8496C25.2283 40.03 25.5885 40.2131 25.9461 40.4022C26.51 40.6987 27.0799 40.9829 27.6507 41.2658C27.7192 41.2998 27.7876 41.3339 27.8561 41.3679C27.9052 41.3922 27.9052 41.3922 27.9553 41.417C28.1614 41.5197 28.3612 41.6289 28.5555 41.7525C28.8952 41.8938 29.3149 41.8543 29.6756 41.8568C29.7379 41.8574 29.8003 41.858 29.8645 41.8586C30.0367 41.8603 30.2089 41.8617 30.3811 41.863C30.5672 41.8645 30.7533 41.8663 30.9393 41.868C31.2618 41.871 31.5843 41.8738 31.9068 41.8765C32.3746 41.8804 32.8425 41.8846 33.3103 41.8889C34.0716 41.8958 34.8328 41.9026 35.594 41.9093C35.6396 41.9097 35.6851 41.9101 35.732 41.9105C35.9164 41.9121 36.1008 41.9137 36.2852 41.9153C36.7905 41.9197 37.2958 41.9241 37.8011 41.9286C37.8689 41.9292 37.8688 41.9292 37.938 41.9298C38.6951 41.9364 39.4523 41.9432 40.2094 41.9501C40.675 41.9544 41.1406 41.9585 41.6062 41.9624C41.9266 41.9651 42.247 41.968 42.5674 41.9709C42.7514 41.9726 42.9353 41.9742 43.1192 41.9757C44.0626 41.9832 45.0045 42.0053 45.9473 42.041C45.9473 42.2182 45.9473 42.3955 45.9473 42.5781C43.3019 42.5867 40.657 42.5638 38.0117 42.5374C37.6169 42.5334 37.2221 42.5296 36.8273 42.5258C36.7717 42.5253 36.7161 42.5248 36.6588 42.5242C36.435 42.5221 36.2112 42.52 35.9874 42.5179C35.3849 42.5121 34.7825 42.5062 34.18 42.4996C34.0207 42.4978 33.8614 42.4961 33.7022 42.4944C33.5976 42.4932 33.493 42.4921 33.3884 42.491C32.745 42.484 32.1017 42.4788 31.4582 42.4761C31.1473 42.4748 30.8363 42.4727 30.5254 42.4704C30.2832 42.4687 30.041 42.4679 29.7988 42.468C29.6522 42.4677 29.5057 42.4665 29.3592 42.465C29.2616 42.4643 29.164 42.4648 29.0664 42.4654C28.6651 42.46 28.3783 42.3797 28.0274 42.1875C27.9575 42.1531 27.8876 42.119 27.8174 42.0853C27.7508 42.052 27.6843 42.0186 27.6179 41.9851C27.5814 41.9669 27.545 41.9486 27.5075 41.9298C27.3929 41.8724 27.2783 41.8148 27.1637 41.7572C27.0881 41.7192 27.0125 41.6813 26.9368 41.6434C26.7873 41.5684 26.6377 41.4933 26.4882 41.4182C26.3447 41.3462 26.2011 41.2744 26.0574 41.2028C25.6968 41.0232 25.3379 40.8408 24.9817 40.6524C24.3607 40.3263 23.7329 40.0138 23.1051 39.7011C23.072 39.6846 23.0389 39.6681 23.0048 39.6511C22.8371 39.5676 22.6694 39.4842 22.5016 39.4009C22.0594 39.1811 21.6218 38.9541 21.1876 38.7189C21.1183 38.6821 21.1183 38.6821 21.0476 38.6446C21.0071 38.6228 20.9665 38.601 20.9248 38.5785C20.7435 38.5008 20.5805 38.4532 20.3896 38.5145C20.3521 38.5332 20.3145 38.5519 20.2759 38.5711C19.8964 38.7347 19.5473 38.7069 19.1597 38.5759C18.8541 38.4436 18.6291 38.2651 18.4967 37.9554C18.3314 37.4818 18.241 37.0572 18.4235 36.5753C18.5228 36.3951 18.6133 36.3081 18.8099 36.2436C19.3462 36.1414 19.8513 36.1223 20.3247 36.4319Z" fill="#0088FF"/>
<path d="M30.3664 70.1308C30.4354 70.1307 30.5044 70.1304 30.5734 70.1301C30.7624 70.1294 30.9514 70.1306 31.1403 70.1321C31.3443 70.1333 31.5484 70.1329 31.7524 70.1327C32.1057 70.1325 32.4589 70.1334 32.8122 70.1351C33.323 70.1375 33.8337 70.1382 34.3445 70.1386C35.1732 70.1392 36.0019 70.1412 36.8306 70.144C37.6355 70.1466 38.4404 70.1487 39.2453 70.15C39.3198 70.1501 39.3198 70.1501 39.3957 70.1502C39.6447 70.1506 39.8937 70.151 40.1427 70.1513C42.2077 70.1544 44.2727 70.1595 46.3377 70.1661C46.3377 70.3433 46.3377 70.5206 46.3377 70.7032C46.266 70.7034 46.1944 70.7036 46.1205 70.7038C44.4086 70.7087 42.6966 70.7139 40.9847 70.7193C40.7726 70.72 40.5606 70.7207 40.3486 70.7213C40.3064 70.7215 40.2642 70.7216 40.2208 70.7218C39.5429 70.7239 38.8651 70.7259 38.1873 70.7278C37.4887 70.7298 36.79 70.732 36.0913 70.7343C35.7003 70.7355 35.3092 70.7368 34.9181 70.7378C33.2066 70.7423 31.4959 70.7535 29.785 70.8008C29.7704 70.8315 29.7559 70.8622 29.7409 70.8938C29.682 71.0063 29.6241 71.0607 29.5256 71.1396C29.3428 71.2903 29.1779 71.4535 29.0138 71.6244C28.9833 71.6558 28.9528 71.6871 28.9213 71.7194C28.8929 71.7489 28.8645 71.7784 28.8353 71.8089C28.7596 71.875 28.7596 71.875 28.6619 71.875C28.6458 71.9234 28.6297 71.9717 28.6131 72.0215C28.5366 72.0986 28.5366 72.0986 28.4391 72.1802C28.404 72.2101 28.3689 72.2399 28.3327 72.2706C28.2963 72.3012 28.2599 72.3318 28.2225 72.3633C27.971 72.5798 27.7303 72.8007 27.5003 73.0402C27.4698 73.0717 27.4392 73.1031 27.4076 73.1354C27.3793 73.1649 27.3509 73.1945 27.3216 73.2249C27.2459 73.2911 27.2459 73.2911 27.1482 73.2911C27.1241 73.3636 27.1241 73.3636 27.0994 73.4375C27.0241 73.5126 27.0241 73.5126 26.9276 73.5926C26.6678 73.813 26.4227 74.0475 26.1762 74.2824C26.0009 74.4485 25.8253 74.6075 25.6346 74.7559C25.5217 74.8658 25.4116 74.978 25.3025 75.0916C25.2721 75.1228 25.2417 75.154 25.2104 75.1862C25.182 75.2157 25.1536 75.2452 25.1244 75.2757C25.0486 75.3418 25.0486 75.3418 24.951 75.3418C24.9532 75.382 24.9555 75.4222 24.9578 75.4635C24.9757 76.0152 24.867 76.3719 24.4961 76.7825C24.3077 76.9499 24.0661 76.9175 23.8285 76.9146C23.5542 76.8954 23.4025 76.8193 23.2023 76.6236C23.022 76.3556 22.9698 76.1016 22.9979 75.7813C23.0618 75.5372 23.1522 75.3196 23.3397 75.1465C23.6325 74.9879 23.8877 74.9227 24.2186 74.9512C24.2538 74.9643 24.2891 74.9774 24.3254 74.9909C24.3692 74.9954 24.3692 74.9954 24.4139 75C24.5431 74.8831 24.5431 74.8831 24.658 74.7559C24.6902 74.7559 24.7225 74.7559 24.7557 74.7559C24.7798 74.6834 24.7798 74.6834 24.8045 74.6094C24.8798 74.5344 24.8798 74.5344 24.9763 74.4544C25.2361 74.234 25.4812 73.9994 25.7277 73.7646C25.903 73.5985 26.0786 73.4395 26.2693 73.2911C26.3822 73.1812 26.4923 73.069 26.6014 72.9554C26.6318 72.9241 26.6622 72.8929 26.6935 72.8608C26.7219 72.8312 26.7503 72.8017 26.7796 72.7713C26.8553 72.7051 26.8553 72.7051 26.9529 72.7051C26.969 72.6568 26.9852 72.6084 27.0018 72.5586C27.0769 72.4837 27.0769 72.4837 27.1732 72.4038C27.3967 72.2142 27.6099 72.0154 27.8227 71.814C27.8776 71.7623 27.8776 71.7623 27.9336 71.7095C28.1211 71.5343 28.1211 71.5343 28.301 71.3515C28.3689 71.2891 28.3689 71.2891 28.4666 71.2891C28.4908 71.2166 28.4908 71.2166 28.5154 71.1426C28.5919 71.0656 28.5919 71.0656 28.6894 70.9839C28.7247 70.954 28.76 70.9241 28.7964 70.8933C28.8326 70.8628 28.8688 70.8323 28.9061 70.8008C28.9998 70.7175 29.0934 70.634 29.1868 70.5504C29.2231 70.5202 29.2593 70.4901 29.2967 70.459C29.3325 70.4235 29.3325 70.4235 29.369 70.3873C29.6759 70.1127 29.9693 70.1255 30.3664 70.1308Z" fill="#0088FF"/>
<path d="M24.6424 22.8674C24.9459 23.0862 25.1307 23.3602 25.1953 23.7305C25.2061 23.9427 25.2042 24.1529 25.1953 24.3652C25.2387 24.3846 25.2387 24.3846 25.2831 24.4043C25.3945 24.465 25.4626 24.5266 25.5493 24.6185C25.669 24.742 25.7909 24.8578 25.9216 24.9695C26.0686 25.096 26.2066 25.2282 26.3428 25.3662C26.5381 25.5639 26.7421 25.7471 26.9531 25.9277C27.0348 25.9976 27.1161 26.0678 27.1973 26.1383C27.2345 26.1703 27.2718 26.2024 27.3102 26.2354C27.3926 26.3184 27.3926 26.3184 27.3926 26.416C27.4215 26.4289 27.4505 26.4418 27.4803 26.4551C27.5918 26.5158 27.6599 26.5773 27.7466 26.6693C27.8662 26.7928 27.9882 26.9086 28.1189 27.0203C28.3105 27.185 28.487 27.362 28.6631 27.5431C28.7622 27.6447 28.7622 27.6447 28.9063 27.7344C28.9063 27.7666 28.9063 27.7988 28.9063 27.832C28.9352 27.8449 28.9642 27.8578 28.994 27.8711C29.1055 27.9318 29.1735 27.9934 29.2603 28.0853C29.3848 28.2139 29.5124 28.3345 29.6478 28.4515C29.9262 28.6926 29.9262 28.6926 30.0293 28.8086C30.0293 28.8408 30.0293 28.873 30.0293 28.9062C31.7244 28.9526 33.4191 28.9642 35.1147 28.968C35.4844 28.9689 35.854 28.97 36.2237 28.9712C36.8825 28.9732 37.5412 28.9752 38.2 28.9769C38.239 28.977 38.278 28.9772 38.3182 28.9773C38.7161 28.9783 39.1139 28.9794 39.5118 28.9804C39.7125 28.981 39.9132 28.9815 40.1138 28.982C40.1535 28.9821 40.1931 28.9823 40.234 28.9824C40.8937 28.9841 41.5534 28.9861 42.2131 28.9882C42.6182 28.9894 43.0234 28.9905 43.4286 28.9914C43.7044 28.992 43.9803 28.9928 44.2562 28.9938C44.4153 28.9943 44.5745 28.9947 44.7336 28.995C44.9056 28.9953 45.0776 28.9958 45.2496 28.9965C45.3003 28.9965 45.3511 28.9965 45.4034 28.9966C45.4491 28.9968 45.4947 28.997 45.5418 28.9973C45.5815 28.9974 45.6212 28.9975 45.6621 28.9976C45.752 29.0039 45.752 29.0039 45.8008 29.0527C45.8043 29.1351 45.8049 29.2175 45.8038 29.2999C45.8034 29.3448 45.803 29.3897 45.8025 29.4359C45.8016 29.4879 45.8016 29.4879 45.8008 29.541C43.7858 29.5477 41.7708 29.5529 39.7558 29.556C39.518 29.5563 39.2801 29.5567 39.0422 29.5571C38.9949 29.5572 38.9475 29.5573 38.8987 29.5573C38.1319 29.5586 37.365 29.5609 36.5982 29.5636C35.8114 29.5664 35.0245 29.568 34.2377 29.5686C33.7522 29.569 33.2667 29.5703 32.7811 29.5726C32.4482 29.5742 32.1153 29.5746 31.7824 29.5743C31.5903 29.5741 31.3982 29.5744 31.2061 29.5759C31.0301 29.5774 30.8542 29.5774 30.6782 29.5764C30.5846 29.5763 30.491 29.5775 30.3974 29.5788C30.0217 29.5749 29.8109 29.5122 29.541 29.248C29.5053 29.2185 29.4696 29.1889 29.4329 29.1584C29.4051 29.1336 29.3774 29.1088 29.3488 29.0833C29.2425 28.9884 29.1361 28.894 29.0281 28.8012C28.9879 28.7663 28.9477 28.7315 28.9063 28.6957C28.869 28.6636 28.8317 28.6316 28.7933 28.5986C28.7109 28.5156 28.7109 28.5156 28.7109 28.418C28.6835 28.4066 28.6561 28.3952 28.6278 28.3834C28.4879 28.3047 28.3949 28.2071 28.2837 28.0914C28.0762 27.8797 27.8621 27.6826 27.6367 27.4902C27.5551 27.4203 27.4737 27.3502 27.3926 27.2797C27.3553 27.2476 27.3181 27.2156 27.2797 27.1826C27.1973 27.0996 27.1973 27.0996 27.1973 27.002C27.1683 26.989 27.1394 26.9761 27.1095 26.9629C26.998 26.9022 26.93 26.8406 26.8433 26.7487C26.7236 26.6252 26.6016 26.5094 26.4709 26.3977C26.324 26.2712 26.186 26.139 26.0498 26.001C25.8545 25.8033 25.6505 25.6201 25.4395 25.4395C25.3578 25.3696 25.2764 25.2994 25.1953 25.2289C25.1581 25.1968 25.1208 25.1648 25.0824 25.1318C25 25.0488 25 25.0488 25 24.9512C24.9718 24.9381 24.9436 24.925 24.9146 24.9115C24.8047 24.8535 24.8047 24.8535 24.704 24.7711C24.6728 24.75 24.6415 24.7288 24.6094 24.707C24.5369 24.7312 24.5369 24.7312 24.4629 24.7559C24.1384 24.7843 23.8633 24.7364 23.584 24.5605C23.3676 24.3223 23.255 24.0895 23.23 23.7701C23.2495 23.4732 23.3163 23.2364 23.5016 23.0011C23.8063 22.7673 24.2898 22.6929 24.6424 22.8674Z" fill="#0088FF"/>
<path d="M68.5547 57.959C68.7446 58.0267 68.8948 58.116 69.0582 58.2336C69.1013 58.2645 69.1445 58.2953 69.1889 58.3271C69.2213 58.3506 69.2537 58.3742 69.2871 58.3984C69.2388 58.4226 69.2388 58.4226 69.1895 58.4473C69.0926 58.3845 68.996 58.3214 68.8995 58.2581C68.8457 58.2229 68.7919 58.1878 68.7365 58.1516C68.6035 58.0566 68.6035 58.0566 68.5547 57.959Z" fill="#0088FF"/>
<path d="M61.1816 53.5156C61.52 53.5156 61.8584 53.5156 62.207 53.5156C62.207 53.5317 62.207 53.5479 62.207 53.5645C61.8687 53.5645 61.5303 53.5645 61.1816 53.5645C61.1816 53.5483 61.1816 53.5322 61.1816 53.5156Z" fill="#0088FF"/>
<path d="M71.9727 60.9863C71.9888 60.9863 72.0049 60.9863 72.0215 60.9863C72.0054 61.1475 71.9893 61.3086 71.9727 61.4746C71.9565 61.4746 71.9404 61.4746 71.9238 61.4746C71.9399 61.3135 71.9561 61.1523 71.9727 60.9863Z" fill="#0088FF"/>
<path d="M63.8672 68.2129C63.9639 68.2935 64.0605 68.374 64.1602 68.457C64.0137 68.457 64.0137 68.457 63.9313 68.3899C63.8672 68.3105 63.8672 68.3105 63.8672 68.2129Z" fill="#0088FF"/>
<path d="M60.6934 53.9062C60.8582 53.9001 60.8582 53.9001 61.0352 53.9062C61.0674 53.9384 61.0996 53.9706 61.1328 54.0038C60.9878 53.9877 60.8428 53.9716 60.6934 53.955C60.6934 53.9389 60.6934 53.9228 60.6934 53.9062Z" fill="#0088FF"/>
<path d="M68.3594 66.6504C68.3916 66.6665 68.4238 66.6826 68.457 66.6992C68.3362 66.7717 68.3362 66.7717 68.2129 66.8457C68.229 66.7974 68.2451 66.749 68.2617 66.6992C68.2939 66.6831 68.3262 66.667 68.3594 66.6504Z" fill="#0088FF"/>
<path d="M58.0566 54.7363C58.0728 54.7363 58.0889 54.7363 58.1055 54.7363C58.1055 54.8652 58.1055 54.9941 58.1055 55.127C58.0894 55.127 58.0732 55.127 58.0566 55.127C58.0566 54.998 58.0566 54.8691 58.0566 54.7363Z" fill="#0088FF"/>
<path d="M70.166 63.916C70.1821 63.9644 70.1982 64.0127 70.2148 64.0625C70.1826 64.0947 70.1504 64.127 70.1172 64.1602C70.1333 64.0796 70.1494 63.999 70.166 63.916Z" fill="#0088FF"/>
<path d="M61.7676 61.6699C61.7998 61.6699 61.832 61.6699 61.8652 61.6699C61.8491 61.7183 61.833 61.7666 61.8164 61.8164C61.8003 61.7681 61.7842 61.7197 61.7676 61.6699Z" fill="#0088FF"/>
<path d="M62.2559 66.2598C62.3042 66.2839 62.3042 66.2839 62.3535 66.3086C62.3374 66.3408 62.3213 66.373 62.3047 66.4062C62.2886 66.3579 62.2725 66.3096 62.2559 66.2598Z" fill="#0088FF"/>
<path d="M62.0117 65.918C62.0601 65.9421 62.0601 65.9421 62.1094 65.9668C62.0933 65.999 62.0771 66.0312 62.0605 66.0645C62.0444 66.0161 62.0283 65.9678 62.0117 65.918Z" fill="#0088FF"/>
<path d="M61.9141 65.7715C61.9624 65.7957 61.9624 65.7957 62.0117 65.8203C61.9956 65.8525 61.9795 65.8848 61.9629 65.918C61.9468 65.8696 61.9307 65.8213 61.9141 65.7715Z" fill="#0088FF"/>
<path d="M59.7168 53.3203C59.9121 53.3691 59.9121 53.3691 59.9121 53.3691L59.7168 53.3203Z" fill="#0088FF"/>
<path d="M68.75 56.4453C68.7822 56.4775 68.8145 56.5098 68.8477 56.543C68.8154 56.543 68.7832 56.543 68.75 56.543C68.75 56.5107 68.75 56.4785 68.75 56.4453Z" fill="#0088FF"/>
<path d="M66.5039 54.541C66.5361 54.5732 66.5684 54.6055 66.6016 54.6387C66.5693 54.6387 66.5371 54.6387 66.5039 54.6387C66.5039 54.6064 66.5039 54.5742 66.5039 54.541Z" fill="#0088FF"/>
<path d="M63.1836 53.3691C63.3301 53.418 63.3301 53.418 63.3301 53.418L63.1836 53.3691Z" fill="#0088FF"/>
<path d="M69.1406 56.7383C69.2383 56.7871 69.2383 56.7871 69.2383 56.7871L69.1406 56.7383Z" fill="#0088FF"/>
<path d="M68.8965 56.5918C68.9941 56.6406 68.9941 56.6406 68.9941 56.6406L68.8965 56.5918Z" fill="#0088FF"/>
<path d="M57.8125 53.125C57.9102 53.1738 57.9102 53.1738 57.9102 53.1738L57.8125 53.125Z" fill="#0088FF"/>
</svg>
