<svg width="64" height="64" viewBox="0 0 64 64" fill="none" xmlns="http://www.w3.org/2000/svg">
<path d="M30.8438 22.6562C30.9041 22.6636 30.9041 22.6636 30.9688 22.6875C31.0199 22.765 31.064 22.8403 31.1075 22.9219C31.3416 23.3395 31.6371 23.7177 31.9688 24.0625C31.9852 24.0798 32.0015 24.0971 32.0183 24.1149C32.6485 24.7803 33.4011 25.2388 34.2311 25.6181C34.3124 25.6562 34.3922 25.6965 34.472 25.7374C34.6154 25.8097 34.7609 25.8667 34.9122 25.9199C35.1313 25.9987 35.3479 26.0815 35.5632 26.1702C35.6717 26.2137 35.7818 26.2521 35.8921 26.2908C36.1243 26.3733 36.3513 26.4663 36.5782 26.5625C36.6202 26.5802 36.6621 26.5979 36.7041 26.6156C37.0353 26.7554 37.3654 26.8979 37.695 27.0417C38.2184 27.2699 38.745 27.4872 39.2777 27.6929C39.3742 27.7301 39.4705 27.7675 39.5669 27.8049C39.935 27.9476 40.3044 28.0868 40.6749 28.2235C41.073 28.3704 41.4699 28.5204 41.8669 28.6703C42.056 28.7418 42.2451 28.8132 42.4343 28.8845C42.4549 28.8923 42.4756 28.9001 42.4969 28.9081C42.8261 29.0324 43.1556 29.156 43.4853 29.2792C44.9242 29.8172 46.3577 30.3707 47.7864 30.9354C48.0492 31.0393 48.3121 31.1426 48.5753 31.2455C49.8265 31.7349 49.8265 31.7349 50.2931 31.9238C50.3258 31.937 50.3586 31.9502 50.3924 31.9638C50.5293 32.0198 50.6559 32.0772 50.7813 32.1562C50.8366 32.1835 50.8919 32.2108 50.9474 32.2375C51.3998 32.4557 51.8025 32.704 52.1563 33.0625C52.182 33.0882 52.2077 33.114 52.2342 33.1405C52.5271 33.4487 52.6855 33.7749 52.7813 34.1875C52.7869 34.2113 52.7925 34.2351 52.7982 34.2597C52.8143 34.3536 52.816 34.4412 52.8154 34.5364C52.8153 34.5746 52.8152 34.6127 52.815 34.652C52.8148 34.6931 52.8145 34.7342 52.8142 34.7766C52.8139 34.8424 52.8137 34.9083 52.8135 34.9742C52.8134 35.0196 52.8132 35.065 52.8131 35.1104C52.8123 35.3363 52.8134 35.5623 52.815 35.7883C52.8152 35.8284 52.8155 35.8686 52.8157 35.9099C52.8164 36.0156 52.8171 36.1213 52.8179 36.2269C52.8187 36.3434 52.8194 36.4598 52.8202 36.5762C52.8215 36.778 52.8228 36.9797 52.8242 37.1815C52.8276 37.704 52.831 38.2266 52.8343 38.7491C52.8349 38.8362 52.8354 38.9232 52.836 39.0102C52.8542 41.8646 52.8724 44.7189 52.8863 49.0918C52.8866 49.3036 52.8873 49.5155 52.8881 49.7274C52.889 49.9785 52.8895 50.2297 52.8894 50.4808C52.8894 50.6041 52.8895 50.7274 52.8902 50.8506C52.8909 50.9805 52.8906 51.1104 52.8903 51.2403C52.8906 51.277 52.891 51.3137 52.8913 51.3516C52.8889 51.666 52.8332 52.003 52.6251 52.25C52.167 52.6807 51.5075 52.9305 50.8811 52.9186C50.3683 52.8968 49.8862 52.6989 49.4063 52.5312C49.3801 52.5221 49.3538 52.5129 49.3268 52.5035C49.0628 52.4103 48.8086 52.3017 48.5562 52.181C48.432 52.1218 48.3061 52.0665 48.1798 52.0117C48.0417 51.9519 47.9042 51.8913 47.7677 51.8281C47.6051 51.7537 47.4402 51.6858 47.2747 51.6182C47.1376 51.5622 47.0008 51.5053 46.8645 51.4474C46.4413 51.2679 46.0151 51.0958 45.5889 50.9236C45.4841 50.8812 45.3794 50.8386 45.2747 50.7959C44.5716 50.5105 43.859 50.2489 43.1471 49.9866C42.6759 49.8129 42.2069 49.6355 41.7414 49.4472C41.4927 49.3467 41.243 49.2495 40.9923 49.1543C40.6846 49.0372 40.3814 48.9115 40.0787 48.7821C39.7776 48.6537 39.4737 48.5337 39.1682 48.416C39.0704 48.378 38.9728 48.3396 38.8752 48.3011C38.1586 48.0176 37.4358 47.7571 36.7074 47.5057C35.6699 47.1476 34.6557 46.7467 33.6504 46.3061C33.5998 46.2839 33.5491 46.2617 33.4985 46.2396C33.0087 46.0242 32.5409 45.7567 32.1224 45.422C32.073 45.3831 32.0211 45.3474 31.9688 45.3125C31.9688 45.2919 31.9688 45.2712 31.9688 45.25C31.9379 45.2397 31.907 45.2294 31.8751 45.2188C31.8751 45.1981 31.8751 45.1775 31.8751 45.1562C31.8545 45.1562 31.8338 45.1562 31.8126 45.1562C31.8126 45.1356 31.8126 45.115 31.8126 45.0938C31.792 45.0938 31.7713 45.0938 31.7501 45.0938C31.6563 44.9856 31.6563 44.9856 31.6563 44.9062C31.6357 44.9062 31.6151 44.9062 31.5938 44.9062C31.5457 44.8414 31.5019 44.7772 31.4591 44.709C31.4465 44.6889 31.4338 44.6688 31.4208 44.6481C31.0008 43.9681 31.0109 43.2466 31.0049 42.4724C31.0036 42.3226 31.0015 42.1728 30.9996 42.0229C30.9963 41.7555 30.9934 41.488 30.9908 41.2206C30.9868 40.8206 30.9822 40.4205 30.9774 40.0205C30.975 39.8235 30.9727 39.6264 30.9703 39.4294C30.9699 39.3888 30.9694 39.3482 30.9689 39.3064C30.9656 39.0273 30.9624 38.7483 30.9593 38.4693C30.9416 36.8955 30.9216 35.3218 30.9011 33.7481C30.8966 33.4009 30.8921 33.0536 30.8876 32.7064C30.8853 32.5321 30.8831 32.3577 30.8808 32.1834C30.8804 32.1488 30.8799 32.1143 30.8795 32.0786C30.8767 31.8688 30.874 31.6589 30.8713 31.449C30.8539 30.1081 30.8365 28.7672 30.8195 27.4264C30.8151 27.0817 30.8107 26.737 30.8062 26.3923C30.8032 26.1588 30.8002 25.9253 30.7973 25.6917C30.7956 25.5583 30.7939 25.4248 30.7922 25.2913C30.7713 23.6938 30.7713 23.6938 30.795 23.0781C30.7962 23.0402 30.7975 23.0022 30.7987 22.9631C30.8007 22.9094 30.8007 22.9094 30.8027 22.8545C30.8038 22.823 30.805 22.7914 30.8062 22.759C30.8126 22.6875 30.8126 22.6875 30.8438 22.6562ZM36.9376 33.5312C36.9064 33.6618 36.9003 33.7888 36.8989 33.9224C36.8986 33.9457 36.8983 33.9691 36.898 33.9931C36.8972 34.0709 36.8968 34.1487 36.8966 34.2266C36.8965 34.2536 36.8964 34.2806 36.8963 34.3084C36.8957 36.2321 37.1902 38.1203 38.0001 39.875C38.014 39.9053 38.0279 39.9355 38.0423 39.9667C38.355 40.6413 38.6852 41.3049 39.1251 41.9062C39.1468 41.9368 39.1686 41.9673 39.191 41.9988C39.4319 42.335 39.6879 42.659 39.9497 42.9791C40.0374 43.0863 40.1236 43.1941 40.2071 43.3047C40.332 43.4668 40.4724 43.615 40.6118 43.7645C40.6825 43.8406 40.7523 43.9174 40.8224 43.9941C40.9565 44.1406 41.0914 44.2863 41.2266 44.4316C41.2443 44.4507 41.262 44.4698 41.2803 44.4894C41.3149 44.5266 41.3499 44.5635 41.385 44.6002C41.4214 44.639 41.4566 44.6791 41.4906 44.72C41.5431 44.78 41.5905 44.8299 41.6563 44.875C41.7548 44.8754 41.8143 44.8674 41.9063 44.8438C41.9537 44.8372 42.0012 44.8312 42.0488 44.8257C43.291 44.6589 44.3748 44.0417 45.1438 43.0414C46.0252 41.8411 46.4724 40.2952 46.4741 38.8119C46.4742 38.78 46.4743 38.7481 46.4744 38.7153C46.4746 38.6482 46.4746 38.5812 46.4746 38.5141C46.4747 38.4127 46.4753 38.3113 46.4759 38.2099C46.4764 38.0522 46.4748 37.8947 46.4708 37.737C46.4696 37.6868 46.4687 37.6366 46.4684 37.5864C46.467 37.4646 46.4609 37.36 46.4063 37.25C46.3096 37.1791 46.207 37.1494 46.093 37.1149C45.9722 37.0735 45.8591 37.0147 45.7446 36.9585C45.6924 36.9332 45.6402 36.908 45.588 36.8827C45.5617 36.8698 45.5353 36.857 45.5081 36.8437C45.4284 36.805 45.3486 36.7666 45.2687 36.7281C44.85 36.5254 44.4487 36.3034 44.0704 36.0312C44.0482 36.0154 44.0259 35.9995 44.0031 35.9832C43.7135 35.7747 43.446 35.5455 43.1849 35.303C43.1014 35.2257 43.0168 35.1498 42.9317 35.0742C42.5436 34.7238 42.2358 34.3337 41.9311 33.9109C41.844 33.7905 41.7526 33.6757 41.6563 33.5625C41.5336 33.5988 41.4279 33.6453 41.3175 33.7099C40.4193 34.2311 39.2334 34.2481 38.2462 33.9961C38.0128 33.933 37.7835 33.8575 37.5548 33.7793C37.5246 33.769 37.4945 33.7588 37.4634 33.7482C37.2971 33.6897 37.1515 33.6212 37.0001 33.5312C36.9795 33.5312 36.9588 33.5312 36.9376 33.5312Z" fill="black"/>
<path d="M52.8499 12.2012C53.1556 12.4119 53.38 12.6324 53.5018 12.9913C53.5132 13.0979 53.5132 13.0979 53.5128 13.2117C53.5129 13.2328 53.5129 13.2539 53.513 13.2757C53.513 13.3462 53.5124 13.4167 53.5118 13.4872C53.5117 13.5382 53.5117 13.5892 53.5117 13.6402C53.5115 13.7797 53.5107 13.9192 53.5098 14.0588C53.5091 14.1784 53.5087 14.298 53.5084 14.4176C53.5072 14.8052 53.505 15.1928 53.5024 15.5804C53.5018 15.6773 53.5011 15.7741 53.5005 15.871C53.4948 16.7728 53.487 17.6747 53.4786 18.5765C53.4761 18.8342 53.4738 19.0919 53.4714 19.3496C53.4709 19.4057 53.4709 19.4057 53.4704 19.4629C53.4697 19.5389 53.469 19.615 53.4684 19.691C53.462 20.3939 53.4555 21.0969 53.449 21.7998C53.4434 22.3996 53.4379 22.9993 53.4325 23.599C53.4262 24.3027 53.4198 25.0065 53.4133 25.7102C53.4126 25.7854 53.4119 25.8606 53.4112 25.9358C53.4109 25.9728 53.4106 26.0098 53.4102 26.0478C53.4078 26.3052 53.4055 26.5627 53.4032 26.8201C53.4004 27.1336 53.3975 27.4471 53.3945 27.7607C53.393 27.9198 53.3915 28.079 53.3901 28.2381C53.3872 28.5726 53.3837 28.907 53.3789 29.2414C53.3774 29.3464 53.3761 29.4513 53.3751 29.5562C53.3737 29.6844 53.3717 29.8126 53.3692 29.9407C53.3684 29.9875 53.3678 30.0343 53.3674 30.0811C53.3637 30.4932 53.3098 30.9148 53.0975 31.2764C53.0874 31.295 53.0774 31.3135 53.067 31.3326C52.9952 31.4612 52.9138 31.5709 52.8143 31.6788C52.7936 31.6788 52.773 31.6788 52.7518 31.6788C52.7518 31.6994 52.7518 31.72 52.7518 31.7413C52.7311 31.7413 52.7105 31.7413 52.6893 31.7413C52.6893 31.7619 52.6893 31.7825 52.6893 31.8038C52.5811 31.8975 52.5811 31.8975 52.5018 31.8975C52.5018 31.9181 52.5018 31.9388 52.5018 31.96C52.0624 32.224 51.693 32.4282 51.1717 32.3097C51.0214 32.2719 50.8797 32.2171 50.7359 32.1599C50.7076 32.1487 50.6792 32.1376 50.6501 32.1262C50.5576 32.0898 50.4652 32.0532 50.3728 32.0167C50.308 31.9911 50.2432 31.9656 50.1783 31.9401C50.0147 31.8757 49.8511 31.811 49.6875 31.7464C49.5511 31.6925 49.4148 31.6388 49.2784 31.585C49.0368 31.4898 48.7953 31.3944 48.5538 31.2989C47.3075 30.806 47.3075 30.806 46.0595 30.3173C45.9543 30.2764 45.8491 30.2354 45.7439 30.1944C45.7036 30.1787 45.7036 30.1787 45.6625 30.1627C45.1863 29.9771 44.7111 29.7891 44.236 29.6005C43.7101 29.3918 43.1829 29.1865 42.6552 28.9825C42.2388 28.8215 41.8233 28.659 41.4092 28.492C41.1702 28.3957 40.9297 28.3028 40.6893 28.21C40.6893 28.1688 40.6893 28.1275 40.6893 28.085C40.7175 28.073 40.7457 28.0609 40.7748 28.0484C41.2913 27.8275 41.8076 27.606 42.3229 27.3823C42.6725 27.2306 43.0226 27.0801 43.373 26.9302C43.4074 26.9155 43.4418 26.9008 43.4772 26.8856C43.5402 26.8587 43.6033 26.8317 43.6664 26.8047C44.068 26.6331 44.4688 26.4597 44.8692 26.2851C45.412 26.0485 45.9557 25.8141 46.5018 25.585C46.6457 25.5246 46.7895 25.464 46.9334 25.4034C46.9656 25.3899 46.9979 25.3763 47.0311 25.3624C47.1892 25.2958 47.3458 25.2272 47.5011 25.1546C47.7849 25.0226 48.0733 24.9012 48.3611 24.7784C48.417 24.7545 48.4728 24.7307 48.5286 24.7068C48.6404 24.659 48.7523 24.6112 48.8641 24.5634C49.3293 24.3647 49.7942 24.1653 50.258 23.9636C50.4458 23.8819 50.6337 23.8006 50.8222 23.7206C50.9078 23.6843 50.9933 23.6478 51.0787 23.6113C51.1193 23.594 51.16 23.5768 51.2007 23.5597C51.51 23.4312 51.51 23.4312 51.783 23.2413C51.8177 23.1178 51.8268 23.0192 51.783 22.8975C51.4851 22.8206 51.2677 22.8818 50.9939 22.9991C50.9599 23.0132 50.9259 23.0273 50.8909 23.0418C50.8184 23.0719 50.746 23.1022 50.6737 23.1327C50.5682 23.1771 50.4626 23.2208 50.3567 23.2643C50.0996 23.3701 49.8429 23.4769 49.5861 23.5837C49.4018 23.6603 49.2174 23.737 49.033 23.8135C49.0059 23.8248 48.9789 23.836 48.951 23.8476C48.5566 24.0113 48.1614 24.1731 47.7654 24.3331C47.3676 24.4939 46.9707 24.6566 46.5751 24.8225C46.3548 24.9148 46.1343 25.0068 45.9139 25.0987C45.8895 25.1088 45.8652 25.119 45.8402 25.1294C45.502 25.2704 45.1632 25.4098 44.8237 25.5474C44.5281 25.6675 44.2336 25.7902 43.9393 25.9131C43.6117 26.05 43.2839 26.186 42.9549 26.3194C42.6065 26.4607 42.2593 26.6049 41.9124 26.7498C41.5157 26.9154 41.1186 27.08 40.7207 27.2429C40.5198 27.3252 40.3194 27.4083 40.12 27.4943C40.0856 27.5091 40.0512 27.5238 40.0157 27.539C39.9527 27.5661 39.8899 27.5934 39.8273 27.6212C39.7997 27.633 39.772 27.6449 39.7436 27.657C39.7201 27.6674 39.6965 27.6777 39.6723 27.6883C39.4906 27.7397 39.3551 27.7121 39.1901 27.6279C39.0422 27.5559 38.894 27.49 38.7402 27.4318C38.7102 27.4205 38.7102 27.4205 38.6796 27.4089C38.6377 27.3931 38.5958 27.3773 38.5538 27.3616C38.437 27.3178 38.3205 27.2735 38.2039 27.2292C38.1674 27.2153 38.1674 27.2153 38.1302 27.2012C37.8632 27.0996 37.5974 26.9949 37.3318 26.8897C37.2953 26.8753 37.2953 26.8753 37.2581 26.8605C37.1317 26.8105 37.0054 26.7604 36.879 26.7104C36.6851 26.6335 36.491 26.5567 36.297 26.48C36.154 26.4236 36.0111 26.367 35.8683 26.3103C35.6077 26.2068 35.3469 26.1044 35.0845 26.0056C34.4412 25.7622 33.8469 25.5031 33.3582 25.0048C33.3146 24.9604 33.2701 24.917 33.2256 24.8736C33.0912 24.742 32.9585 24.6107 32.8455 24.46C32.8455 24.4394 32.8455 24.4188 32.8455 24.3975C32.8249 24.3975 32.8043 24.3975 32.783 24.3975C32.6918 24.278 32.6138 24.1492 32.533 24.0225C32.516 23.9975 32.499 23.9725 32.4815 23.9467C31.9728 23.1676 31.9098 22.0335 32.0955 21.1475C32.1035 21.1091 32.1115 21.0706 32.1198 21.0309C32.2202 20.6082 32.4178 20.207 32.6893 19.8663C32.7099 19.8663 32.7305 19.8663 32.7518 19.8663C32.7601 19.848 32.7684 19.8298 32.777 19.811C32.8425 19.6885 32.9392 19.5928 33.033 19.4913C33.0566 19.4657 33.0801 19.44 33.1044 19.4136C33.1285 19.3883 33.1527 19.363 33.1775 19.337C33.211 19.3017 33.211 19.3017 33.2452 19.2658C33.3219 19.2039 33.3736 19.1895 33.4705 19.1788C33.4705 19.1581 33.4705 19.1375 33.4705 19.1163C34.0354 18.8895 34.6011 18.6648 35.1679 18.4427C35.375 18.3614 35.5819 18.2799 35.7889 18.1983C35.8324 18.1811 35.876 18.164 35.9196 18.1468C36.0073 18.1122 36.0951 18.0776 36.1828 18.0431C36.3128 17.9919 36.4427 17.9407 36.5727 17.8895C36.6045 17.8769 36.6045 17.8769 36.6369 17.8642C36.7447 17.8217 36.8525 17.7792 36.9603 17.7368C37.1662 17.6557 37.3722 17.5745 37.578 17.4933C38.3548 17.1871 39.1319 16.882 39.9091 16.5768C39.9446 16.5628 39.9802 16.5488 40.0169 16.5344C40.0918 16.505 40.1667 16.4756 40.2416 16.4462C40.6637 16.2804 41.0857 16.1146 41.5076 15.9483C41.5506 15.9314 41.5936 15.9144 41.6366 15.8975C41.725 15.8627 41.8133 15.8279 41.9016 15.7931C42.0958 15.7165 42.2901 15.64 42.4843 15.5635C42.5917 15.5212 42.6991 15.4789 42.8064 15.4366C42.8494 15.4197 42.8924 15.4027 42.9353 15.3858C42.9566 15.3774 42.9779 15.369 42.9998 15.3604C43.1932 15.2842 43.1932 15.2842 43.2576 15.2588C43.3006 15.2419 43.3435 15.225 43.3864 15.2081C43.4944 15.1656 43.6024 15.123 43.7104 15.0805C43.9163 14.9994 44.1222 14.9183 44.328 14.8371C44.8442 14.6336 45.3606 14.4306 45.877 14.2278C46.5398 13.9675 47.2024 13.7068 47.8646 13.4451C48.1062 13.3497 48.3479 13.2544 48.5896 13.1592C48.6107 13.1509 48.6318 13.1427 48.6535 13.1341C48.7587 13.0927 48.8639 13.0512 48.9691 13.0098C49.1185 12.951 49.2679 12.8921 49.4174 12.8332C49.5245 12.791 49.6316 12.7488 49.7388 12.7067C49.9376 12.6286 50.1363 12.5501 50.3345 12.4704C50.4266 12.4334 50.5189 12.3965 50.6111 12.3597C50.6544 12.3423 50.6977 12.3249 50.741 12.3073C51.3798 12.0479 52.2018 11.8227 52.8499 12.2012ZM50.4393 16.46C50.3693 16.4889 50.2993 16.5177 50.2293 16.5466C50.0561 16.618 49.8831 16.6897 49.7101 16.7615C49.5001 16.8487 49.29 16.9356 49.0799 17.0225C49.0044 17.0538 48.9288 17.085 48.8533 17.1163C48.7023 17.1788 48.5512 17.2413 48.4002 17.3038C48.3441 17.327 48.3441 17.327 48.2869 17.3506C48.2113 17.3819 48.1357 17.4132 48.06 17.4445C47.8731 17.5219 47.6863 17.5992 47.4994 17.6766C47.1239 17.8321 46.7482 17.9873 46.3722 18.1419C45.9483 18.3163 45.5247 18.4914 45.1014 18.6671C45.0604 18.684 45.0604 18.684 45.0186 18.7014C44.9107 18.7461 44.8029 18.7909 44.695 18.8356C44.3182 18.992 43.9413 19.148 43.5643 19.3038C43.5213 19.3215 43.4783 19.3393 43.4353 19.3571C43.2986 19.4136 43.1619 19.47 43.0252 19.5264C43.0028 19.5357 42.9803 19.5449 42.9572 19.5545C42.6306 19.6891 42.3033 19.8219 41.9744 19.9512C41.7994 20.0204 41.6279 20.0951 41.457 20.1738C41.3451 20.2243 41.2314 20.2691 41.117 20.3135C40.8062 20.4361 40.4988 20.5661 40.1912 20.6964C39.7895 20.8663 39.3868 21.0333 38.9822 21.1964C38.6004 21.3503 38.2195 21.5063 37.8396 21.6651C37.8165 21.6748 37.7934 21.6844 37.7696 21.6944C37.7466 21.704 37.7236 21.7136 37.6998 21.7235C37.6535 21.7429 37.6071 21.7623 37.5607 21.7817C37.5378 21.7912 37.515 21.8008 37.4914 21.8106C37.2587 21.9078 37.0256 22.004 36.7924 22.1C36.7253 22.1276 36.6583 22.1553 36.5913 22.1829C36.3973 22.2629 36.2031 22.3423 36.0079 22.4194C35.9761 22.432 35.9443 22.4447 35.9115 22.4577C35.8544 22.4804 35.7972 22.5028 35.7398 22.5248C35.5624 22.5955 35.4116 22.6715 35.3038 22.8364C35.2638 22.954 35.2533 23.0573 35.283 23.1788C35.3776 23.3118 35.5063 23.4001 35.6619 23.4483C36.0571 23.5011 36.4595 23.2906 36.8123 23.1378C36.8845 23.1069 36.9567 23.0762 37.0289 23.0455C37.0763 23.0253 37.1238 23.005 37.1712 22.9847C37.3203 22.9209 37.4702 22.8598 37.621 22.8005C37.8018 22.7289 37.9779 22.6502 38.1539 22.5676C38.3146 22.4936 38.4785 22.4272 38.6424 22.3604C38.7223 22.3276 38.8021 22.2947 38.882 22.2618C38.9035 22.2529 38.9249 22.2441 38.9471 22.235C39.2453 22.1118 39.5424 21.986 39.8396 21.8604C39.8697 21.8477 39.8997 21.835 39.9306 21.822C40.3773 21.6332 40.8235 21.4436 41.2697 21.2536C41.7077 21.0672 42.1466 20.883 42.5859 20.6994C42.9886 20.5311 43.3909 20.3618 43.7926 20.191C44.1843 20.0245 44.5764 19.859 44.9686 19.6936C45.293 19.5568 45.6173 19.4197 45.9412 19.2816C45.9691 19.2697 45.9969 19.2578 46.0256 19.2456C46.1563 19.1899 46.287 19.1341 46.4176 19.0782C46.668 18.9713 46.9194 18.8674 47.1725 18.767C47.3595 18.6929 47.5442 18.6163 47.7266 18.5313C47.9079 18.4486 48.0924 18.3731 48.2762 18.2962C48.4075 18.2412 48.5387 18.1861 48.67 18.1309C48.6972 18.1195 48.7244 18.108 48.7525 18.0963C48.9438 18.0158 49.1348 17.9349 49.3257 17.8536C49.3522 17.8423 49.3786 17.831 49.4059 17.8194C49.5117 17.7743 49.6176 17.7292 49.7234 17.6841C49.9872 17.5717 50.2512 17.4596 50.5165 17.3509C50.5474 17.3382 50.5474 17.3382 50.579 17.3253C50.6729 17.2868 50.7668 17.2485 50.861 17.2105C51.4329 17.0016 51.4329 17.0016 51.8592 16.6006C51.8906 16.4611 51.9007 16.3741 51.824 16.2491C51.7294 16.157 51.6546 16.1189 51.5223 16.113C51.1461 16.1279 50.7814 16.3179 50.4393 16.46Z" fill="black"/>
<path d="M37.3127 34.1875C37.4366 34.2089 37.5497 34.2452 37.6682 34.2871C37.9925 34.3978 38.3233 34.4829 38.6565 34.5625C38.6914 34.5711 38.6914 34.5711 38.727 34.5799C39.5765 34.7822 40.7922 34.7518 41.5544 34.2922C41.6252 34.25 41.6252 34.25 41.6877 34.25C41.741 34.3201 41.7916 34.3908 41.842 34.4629C42.1265 34.8565 42.4813 35.1949 42.8481 35.5115C42.9212 35.5753 42.9914 35.6418 43.0617 35.7087C43.2905 35.9258 43.5294 36.1232 43.7815 36.3125C43.8024 36.3284 43.8233 36.3444 43.8449 36.3608C44.4962 36.8555 45.2096 37.2326 45.969 37.5312C45.9888 39.195 45.9888 39.195 45.8752 39.8438C45.8704 39.8736 45.8655 39.9034 45.8605 39.9341C45.7082 40.8479 45.3967 41.7799 44.844 42.5312C44.8261 42.5557 44.8082 42.5802 44.7898 42.6053C44.6518 42.788 44.4997 42.9575 44.344 43.125C44.3267 43.1439 44.3095 43.1629 44.2917 43.1824C43.6925 43.8142 42.7227 44.2858 41.848 44.3156C41.8215 44.3152 41.7951 44.3148 41.7678 44.3145C41.7408 44.3142 41.7137 44.3139 41.6859 44.3136C41.6559 44.3131 41.6559 44.3131 41.6252 44.3125C41.6252 44.2919 41.6252 44.2712 41.6252 44.25C41.5988 44.2388 41.5988 44.2388 41.5718 44.2273C41.4848 44.1789 41.4249 44.1203 41.3543 44.0499C41.3264 44.0221 41.2985 43.9942 41.2697 43.9655C41.2407 43.9363 41.2117 43.9071 41.1819 43.877C41.1535 43.8488 41.1251 43.8207 41.0959 43.7917C40.9279 43.6232 40.7723 43.4494 40.6237 43.2636C40.575 43.2028 40.5256 43.1434 40.4743 43.0848C40.2345 42.8098 40.0215 42.5179 39.8127 42.2188C39.7992 42.1995 39.7858 42.1803 39.7719 42.1605C39.35 41.5547 38.9859 40.9098 38.6565 40.25C38.6395 40.2165 38.6395 40.2165 38.6223 40.1824C37.7234 38.3947 37.0655 36.2003 37.3127 34.1875ZM37.844 34.8125C37.7733 34.8832 37.7868 35.0286 37.7815 35.125C37.782 35.2719 37.7898 35.4179 37.799 35.5645C37.8004 35.5853 37.8017 35.6062 37.803 35.6277C37.8359 36.1249 37.9253 36.6075 38.0315 37.0938C38.0387 37.1274 38.046 37.1611 38.0534 37.1959C38.2132 37.9238 38.4549 38.6421 38.7815 39.3125C38.7917 39.3335 38.8019 39.3545 38.8124 39.3762C38.8739 39.5017 38.9368 39.6264 39.0002 39.7509C39.0318 39.8132 39.063 39.8757 39.094 39.9384C39.2345 40.2222 39.3799 40.5031 39.5315 40.7812C39.5438 40.8039 39.5561 40.8266 39.5688 40.8499C40.0158 41.6684 40.5212 42.4643 41.1291 43.1738C41.1541 43.2031 41.1541 43.2031 41.1795 43.2331C41.2578 43.3223 41.3246 43.3961 41.4377 43.4375C41.4377 43.4581 41.4377 43.4788 41.4377 43.5C41.4862 43.5436 41.5367 43.585 41.5881 43.625C41.616 43.6469 41.6439 43.6688 41.6727 43.6914C41.7764 43.7825 41.7764 43.7825 41.9031 43.8064C41.9362 43.7965 41.9362 43.7965 41.9701 43.7864C42.0076 43.7753 42.0076 43.7753 42.0458 43.7641C42.0727 43.7556 42.0995 43.747 42.1272 43.7383C42.155 43.7296 42.1828 43.721 42.2115 43.7121C42.8675 43.5016 43.4332 43.1872 43.9377 42.7188C43.9552 42.7028 43.9727 42.6868 43.9907 42.6704C44.8143 41.9135 45.2498 40.8401 45.4065 39.75C45.4099 39.7273 45.4134 39.7045 45.4169 39.6811C45.4892 39.2009 45.5027 38.7191 45.5041 38.2344C45.5043 38.1831 45.5043 38.1831 45.5046 38.1309C45.5045 38.099 45.5044 38.0671 45.5044 38.0342C45.5043 37.9915 45.5043 37.9915 45.5043 37.9479C45.5032 37.8701 45.5032 37.8701 45.469 37.7812C45.3865 37.7455 45.3057 37.7149 45.2209 37.6855C44.7754 37.5215 44.3754 37.2855 43.9918 37.0074C43.9317 36.9645 43.871 36.9227 43.81 36.881C43.5299 36.6883 43.2672 36.4841 43.0133 36.2579C42.9577 36.2087 42.9007 36.1612 42.844 36.1133C42.5849 35.8856 42.3374 35.6358 42.1141 35.3729C42.05 35.2976 41.9842 35.224 41.9182 35.1504C41.8847 35.113 41.8847 35.113 41.8506 35.0748C41.7774 34.9957 41.7019 34.9195 41.6252 34.8438C41.5882 34.8647 41.5882 34.8647 41.5504 34.8861C40.6893 35.3476 39.672 35.3596 38.7483 35.0911C38.5804 35.0388 38.4148 34.9806 38.2517 34.9148C38.1144 34.8594 37.9921 34.8241 37.844 34.8125Z" fill="black"/>
<path d="M29.594 41.6562C29.594 41.7799 29.594 41.9037 29.594 42.0312C28.8233 42.0355 28.0526 42.0397 27.2819 42.0438C27.1505 42.0445 27.0192 42.0452 26.8878 42.0459C25.1226 42.0554 23.3575 42.0635 21.5922 42.0697C21.3608 42.0705 21.1293 42.0713 20.8978 42.0721C20.6905 42.0728 20.4832 42.0736 20.2758 42.0743C20.2417 42.0744 20.2417 42.0744 20.207 42.0745C19.6601 42.0765 19.1133 42.0783 18.5665 42.08C18.1973 42.0811 17.8281 42.0823 17.4589 42.0836C17.2184 42.0845 16.9779 42.0852 16.7375 42.0859C16.5897 42.0863 16.442 42.0868 16.2942 42.0874C16.2269 42.0877 16.1596 42.0878 16.0922 42.088C15.8845 42.0884 15.6767 42.0901 15.469 42.0937C15.4233 42.0944 15.4233 42.0944 15.3768 42.0952C15.2862 42.097 15.1957 42.0996 15.1051 42.1026C15.0778 42.1031 15.0506 42.1036 15.0225 42.1041C14.8683 42.1103 14.7766 42.1246 14.6628 42.239C14.6126 42.3097 14.6126 42.3097 14.5705 42.3867C14.5361 42.4385 14.5016 42.4903 14.467 42.5421C14.4514 42.5672 14.4357 42.5923 14.4195 42.6183C14.3616 42.7087 14.2966 42.7875 14.2268 42.8691C14.1156 43.0037 14.0084 43.1411 13.9023 43.2798C13.7637 43.4612 13.6225 43.6405 13.4812 43.8198C13.4237 43.8928 13.3662 43.9659 13.3088 44.0391C13.2801 44.0756 13.2514 44.112 13.2228 44.1485C13.1518 44.2388 13.0809 44.3291 13.0102 44.4196C12.8552 44.6179 12.6983 44.8146 12.5393 45.0097C12.399 45.1818 12.2602 45.3548 12.1252 45.5312C11.9615 45.7448 11.7975 45.9578 11.6288 46.1674C11.5367 46.2824 11.4461 46.3984 11.3553 46.5144C11.2771 46.614 11.1985 46.7132 11.1191 46.812C11.0942 46.8429 11.0942 46.8429 11.0689 46.8745C11.0372 46.9139 11.0054 46.9532 10.9736 46.9925C10.9444 47.0288 10.9154 47.0652 10.8867 47.1018C10.8571 47.1395 10.827 47.1767 10.7964 47.2136C10.7452 47.2763 10.7452 47.2763 10.6877 47.3749C10.6956 47.4505 10.6956 47.4505 10.7405 47.5156C10.8652 47.7758 10.8507 48.0726 10.7619 48.3437C10.6635 48.5753 10.5369 48.7169 10.3075 48.821C10.0849 48.9093 9.82005 48.9155 9.59593 48.8261C9.41347 48.7304 9.29848 48.593 9.22288 48.4023C9.1286 48.0678 9.17934 47.7703 9.34397 47.4687C9.44673 47.3024 9.58994 47.2022 9.77342 47.1368C9.84397 47.1249 9.84397 47.1249 9.95347 47.1293C10.1854 47.1408 10.1854 47.1408 10.3963 47.0585C10.4961 46.9651 10.5739 46.8555 10.6502 46.7427C10.7064 46.66 10.7677 46.5813 10.8283 46.5019C10.851 46.4712 10.8736 46.4406 10.897 46.409C11.0177 46.2471 11.1435 46.0891 11.2687 45.9306C11.3265 45.8574 11.3842 45.7841 11.4418 45.7108C11.4847 45.656 11.5278 45.6013 11.5708 45.5466C11.6274 45.4746 11.6838 45.4025 11.7402 45.3303C11.9101 45.1129 12.0827 44.898 12.2573 44.6844C12.3638 44.5535 12.4682 44.4213 12.5705 44.2871C12.6648 44.1634 12.7606 44.0417 12.8596 43.9218C12.9734 43.7839 13.0832 43.6434 13.1918 43.5013C13.3304 43.3202 13.4714 43.1411 13.6126 42.9619C13.6571 42.9054 13.7015 42.8489 13.7458 42.7923C13.8923 42.6056 14.0393 42.4194 14.1887 42.2351C14.2344 42.1764 14.2785 42.1165 14.3215 42.0559C14.3337 42.0388 14.3459 42.0217 14.3585 42.0041C14.3928 41.9558 14.4266 41.9071 14.4604 41.8583C14.5626 41.7474 14.6657 41.7232 14.8142 41.7106C14.8653 41.7104 14.8653 41.7104 14.9174 41.7102C14.957 41.7099 14.9966 41.7096 15.0374 41.7093C15.0812 41.7093 15.125 41.7092 15.1688 41.7092C15.2157 41.709 15.2625 41.7087 15.3094 41.7084C15.4387 41.7077 15.5681 41.7074 15.6974 41.7071C15.8386 41.7067 15.9797 41.706 16.1209 41.7053C16.3687 41.7041 16.6164 41.7032 16.8642 41.7024C17.2277 41.7013 17.5913 41.6998 17.9549 41.6982C18.5736 41.6956 19.1922 41.6932 19.8109 41.691C20.4896 41.6886 21.1683 41.6859 21.847 41.6832C21.8696 41.6831 21.8921 41.683 21.9154 41.6829C22.1222 41.6821 22.329 41.6812 22.5358 41.6804C24.0572 41.6741 25.5786 41.6681 27.1 41.6624C27.2187 41.6619 27.3374 41.6615 27.4561 41.661C27.6414 41.6603 27.8267 41.6596 28.012 41.659C28.0788 41.6587 28.1456 41.6585 28.2124 41.6582C28.6729 41.6564 29.1334 41.6559 29.594 41.6562Z" fill="#1E1E1E"/>
<path d="M10.4734 15.1524C10.6818 15.2785 10.801 15.4358 10.879 15.6659C10.9561 15.9897 10.9211 16.294 10.7815 16.5938C10.7947 16.6086 10.808 16.6233 10.8216 16.6386C10.9611 16.7958 11.0914 16.9581 11.219 17.125C11.2704 17.1921 11.3218 17.2592 11.3733 17.3262C11.3867 17.3437 11.4001 17.3612 11.414 17.3792C11.513 17.5079 11.6138 17.6349 11.7156 17.7614C11.7923 17.8573 11.8679 17.954 11.9436 18.0508C12.0706 18.2132 12.1999 18.3736 12.3303 18.5332C12.4792 18.7156 12.6244 18.9002 12.7672 19.0873C12.8485 19.1937 12.9311 19.2991 13.0139 19.4043C13.0282 19.4225 13.0425 19.4407 13.0573 19.4594C13.0862 19.4962 13.1153 19.533 13.1443 19.5698C13.2161 19.6611 13.2879 19.7524 13.3596 19.8438C13.3883 19.8802 13.4169 19.9167 13.4455 19.9532C13.6174 20.1719 13.6174 20.1719 13.6604 20.2266C13.689 20.263 13.7176 20.2994 13.7462 20.3358C13.8187 20.428 13.8911 20.5203 13.9634 20.6127C14.1145 20.8059 14.2659 20.9984 14.4253 21.185C14.4853 21.2621 14.5347 21.3363 14.5849 21.4196C14.6085 21.4559 14.6085 21.4559 14.6325 21.493C14.6799 21.5664 14.6799 21.5664 14.7187 21.6384C14.7752 21.723 14.8177 21.7607 14.9065 21.8125C15.0034 21.8305 15.0997 21.8324 15.1981 21.8345C15.2271 21.8355 15.256 21.8364 15.2859 21.8374C15.3781 21.8402 15.4704 21.8422 15.5627 21.8438C15.5915 21.8443 15.6203 21.8448 15.6499 21.8453C15.8633 21.8486 16.0766 21.8493 16.29 21.8497C16.3607 21.8499 16.4314 21.8502 16.5021 21.8505C16.654 21.851 16.8059 21.8515 16.9578 21.8519C17.1818 21.8525 17.4058 21.8533 17.6297 21.8541C18.0023 21.8554 18.375 21.8566 18.7476 21.8577C19.2963 21.8594 19.845 21.8612 20.3938 21.8632C20.4165 21.8633 20.4393 21.8633 20.4628 21.8634C20.7162 21.8643 20.9695 21.8652 21.2229 21.8661C21.4078 21.8668 21.5927 21.8674 21.7776 21.8681C23.4898 21.874 25.2019 21.8822 26.9141 21.8921C27.0372 21.8928 27.1603 21.8935 27.2835 21.8942C27.9703 21.8981 28.6571 21.9021 29.344 21.9063C29.344 22.03 29.344 22.1538 29.344 22.2813C27.0875 22.2734 24.8311 22.2653 22.5746 22.2565C22.5258 22.2564 22.4771 22.2562 22.4283 22.256C22.4042 22.2559 22.3801 22.2558 22.3553 22.2557C22.2585 22.2553 22.1617 22.255 22.0649 22.2546C21.9929 22.2543 21.9208 22.254 21.8488 22.2537C21.1932 22.2512 20.5377 22.2488 19.8821 22.2465C19.2274 22.2442 18.5727 22.2417 17.918 22.2388C17.5582 22.2373 17.1984 22.2359 16.8386 22.2348C16.596 22.234 16.3534 22.233 16.1108 22.2318C15.973 22.2311 15.8353 22.2305 15.6975 22.2302C15.5731 22.2299 15.4487 22.2294 15.3243 22.2286C15.2796 22.2284 15.2349 22.2282 15.1901 22.2282C15.1296 22.2282 15.069 22.2277 15.0084 22.2273C14.9749 22.2271 14.9414 22.227 14.9068 22.2269C14.7525 22.2136 14.6537 22.1869 14.5474 22.0723C14.5221 22.0381 14.4973 22.0036 14.4729 21.9688C14.4457 21.9316 14.4184 21.8945 14.3911 21.8574C14.3778 21.8391 14.3645 21.8208 14.3508 21.8019C14.2986 21.7308 14.2434 21.6623 14.1877 21.5938C14.0944 21.4778 14.0029 21.3604 13.9123 21.2422C13.7599 21.0433 13.6053 20.8462 13.4502 20.6494C13.4061 20.5933 13.3622 20.5372 13.3182 20.481C13.1871 20.3134 13.0555 20.1466 12.9202 19.9824C12.8084 19.8467 12.7009 19.7082 12.5943 19.5684C12.4875 19.4288 12.3771 19.2923 12.2659 19.1563C12.1163 18.9733 11.9704 18.7881 11.827 18.6002C11.7457 18.4938 11.6631 18.3885 11.5803 18.2832C11.5589 18.256 11.5589 18.256 11.537 18.2282C11.508 18.1913 11.479 18.1545 11.45 18.1177C11.3924 18.0447 11.3349 17.9715 11.2775 17.8984C11.2489 17.862 11.2204 17.8257 11.1918 17.7893C11.1046 17.6784 11.0175 17.5673 10.9307 17.4561C10.9017 17.4192 10.8725 17.3825 10.8431 17.3459C10.7748 17.2606 10.712 17.1767 10.6525 17.0847C10.5535 16.9395 10.4949 16.8556 10.3179 16.819C10.2301 16.8125 10.143 16.8122 10.055 16.813C9.85784 16.8122 9.69554 16.7521 9.54552 16.6186C9.32101 16.3408 9.25469 16.0347 9.28148 15.6875C9.32679 15.4619 9.41081 15.3135 9.58788 15.1669C9.85361 15.0047 10.2013 15.0094 10.4734 15.1524Z" fill="#1E1E1E"/>
<path d="M6.73319 31.276C6.78128 31.3125 6.78128 31.3125 6.81253 31.4062C6.84347 31.4165 6.87441 31.4268 6.90628 31.4375C6.94278 31.493 6.94278 31.493 6.97464 31.5605C6.9854 31.5827 6.99615 31.6049 7.00724 31.6278C7.03128 31.6875 7.03128 31.6875 7.03128 31.75C7.06455 31.7499 7.09782 31.7499 7.13209 31.7499C8.94458 31.7484 10.757 31.7498 12.5695 31.7552C12.6036 31.7553 12.6036 31.7553 12.6384 31.7554C13.2858 31.7574 13.9332 31.7594 14.5806 31.7616C14.8597 31.7625 15.1388 31.7634 15.4179 31.7643C16.2935 31.7671 17.169 31.7699 18.0446 31.7728C18.0713 31.7729 18.0981 31.773 18.1256 31.7731C18.234 31.7734 18.3423 31.7738 18.4507 31.7741C18.5322 31.7744 18.6136 31.7747 18.6951 31.7749C18.722 31.775 18.7489 31.7751 18.7767 31.7752C19.6579 31.7781 20.5391 31.7809 21.4203 31.7837C22.3599 31.7866 23.2995 31.7896 24.2391 31.7927C24.342 31.7931 24.4449 31.7934 24.5478 31.7937C24.5858 31.7939 24.5858 31.7939 24.6246 31.794C25.0306 31.7953 25.4366 31.7966 25.8427 31.7978C26.2487 31.799 26.6547 31.8004 27.0607 31.8018C27.3014 31.8027 27.5422 31.8034 27.7829 31.8041C27.9625 31.8046 28.1421 31.8052 28.3218 31.8059C28.3944 31.8062 28.467 31.8064 28.5396 31.8066C28.6383 31.8068 28.7369 31.8072 28.8356 31.8076C28.8638 31.8077 28.8919 31.8077 28.921 31.8077C29.1054 31.8088 29.2855 31.8231 29.4688 31.8437C29.4688 31.9571 29.4688 32.0706 29.4688 32.1875C27.5872 32.189 25.7057 32.1879 23.8242 32.1822C23.8014 32.1822 23.7786 32.1821 23.7552 32.182C23.1324 32.1801 22.5095 32.1782 21.8867 32.1761C21.5827 32.1751 21.2787 32.1741 20.9747 32.1732C20.099 32.1704 19.2233 32.1675 18.3476 32.1646C18.3208 32.1645 18.2941 32.1645 18.2665 32.1644C18.1582 32.164 18.0499 32.1636 17.9416 32.1633C17.8602 32.163 17.7787 32.1627 17.6973 32.1625C17.6569 32.1623 17.6569 32.1623 17.6157 32.1622C16.7343 32.1593 15.8528 32.1565 14.9713 32.1538C14.0314 32.1509 13.0915 32.1479 12.1516 32.1447C12.0487 32.1444 11.9459 32.144 11.843 32.1437C11.8177 32.1436 11.7923 32.1435 11.7663 32.1434C11.36 32.1421 10.9538 32.1408 10.5475 32.1396C10.1415 32.1384 9.73557 32.1371 9.32961 32.1356C9.08878 32.1348 8.84794 32.134 8.60711 32.1334C8.42765 32.1329 8.24818 32.1322 8.06872 32.1315C7.996 32.1312 7.92328 32.131 7.85055 32.1309C7.75206 32.1306 7.65358 32.1302 7.55509 32.1298C7.52661 32.1298 7.49813 32.1297 7.46879 32.1297C7.32986 32.1289 7.1993 32.1218 7.06253 32.0937C7.05931 32.1311 7.05609 32.1685 7.05277 32.207C7.02483 32.4185 6.94053 32.5482 6.7753 32.6794C6.59857 32.8023 6.39547 32.8043 6.18753 32.7812C5.95983 32.7186 5.78262 32.6279 5.65042 32.4277C5.51719 32.1736 5.49586 31.9275 5.56644 31.6523C5.63165 31.4564 5.73295 31.3337 5.90433 31.2207C6.16652 31.1272 6.4865 31.1554 6.73319 31.276Z" fill="#1E1E1E"/>
<path d="M29.5311 36.6875C29.5311 36.8009 29.5311 36.9144 29.5311 37.0312C28.4717 37.0692 27.4117 37.0739 26.3518 37.0829C26.08 37.0852 25.8082 37.0877 25.5365 37.0901C25.0517 37.0946 24.567 37.0989 24.0823 37.1032C24.0534 37.1034 24.0246 37.1037 23.9949 37.104C23.6724 37.1068 23.3498 37.1096 23.0273 37.1125C22.9096 37.1135 22.7919 37.1145 22.6742 37.1155C22.6306 37.1159 22.6306 37.1159 22.5862 37.1163C22.1018 37.1206 21.6174 37.1249 21.133 37.1294C20.8353 37.1321 20.5375 37.1347 20.2398 37.1372C20.0364 37.1389 19.8331 37.1407 19.6297 37.1426C19.5125 37.1437 19.3953 37.1448 19.2781 37.1457C19.1511 37.1467 19.024 37.1479 18.897 37.1491C18.8601 37.1494 18.8232 37.1496 18.7851 37.1499C18.494 37.153 18.2634 37.1648 18.0076 37.3105C17.7312 37.4621 17.4506 37.604 17.1683 37.7441C16.6489 38.0017 16.6489 38.0017 16.1352 38.2705C15.9052 38.3939 15.6709 38.5088 15.4373 38.625C15.3912 38.6479 15.3452 38.6709 15.2991 38.6938C15.2761 38.7053 15.253 38.7168 15.2293 38.7286C15.1344 38.7759 15.0395 38.8231 14.9447 38.8704C14.8968 38.8943 14.8488 38.9182 14.8009 38.942C14.5135 39.0849 14.2283 39.2308 13.9456 39.3828C13.8207 39.4497 13.6949 39.5147 13.5682 39.5781C13.547 39.5889 13.5257 39.5997 13.5039 39.6108C13.351 39.6875 13.351 39.6875 13.2811 39.6875C13.2825 39.7064 13.284 39.7254 13.2855 39.7449C13.2996 40.0732 13.185 40.3089 12.9755 40.5582C12.7852 40.7412 12.533 40.7914 12.2769 40.788C12.0824 40.7734 11.8845 40.7459 11.7303 40.6211C11.6031 40.3551 11.5971 40.0861 11.6888 39.8065C11.7788 39.58 11.8628 39.3977 12.0916 39.2891C12.1177 39.2763 12.1437 39.2636 12.1706 39.2505C12.3672 39.1717 12.5996 39.1459 12.8017 39.2165C12.8535 39.2392 12.9048 39.263 12.9554 39.2882C13.1121 39.3385 13.2414 39.277 13.3826 39.2055C13.4026 39.195 13.4226 39.1846 13.4432 39.1738C13.4754 39.1574 13.4754 39.1574 13.5082 39.1406C13.7006 39.0418 13.8918 38.9409 14.0826 38.8392C14.3235 38.7111 14.568 38.5902 14.8123 38.4687C15.5479 38.1041 15.5479 38.1041 16.2769 37.7264C16.4792 37.6189 16.6838 37.5163 16.8891 37.4145C16.9869 37.3658 17.0846 37.3168 17.1822 37.2677C17.2406 37.2384 17.299 37.209 17.3575 37.1797C17.3958 37.1605 17.434 37.1412 17.4723 37.122C17.5269 37.0945 17.5815 37.0671 17.6362 37.0397C17.6837 37.0158 17.6837 37.0158 17.7321 36.9914C17.7873 36.9647 17.7873 36.9647 17.8436 36.9375C17.8784 36.9183 17.8784 36.9183 17.914 36.8988C18.1557 36.7744 18.3623 36.7588 18.6312 36.7603C18.6755 36.76 18.7198 36.7596 18.7641 36.7592C18.8602 36.7583 18.9564 36.758 19.0525 36.758C19.2099 36.758 19.3674 36.757 19.5249 36.7558C19.7266 36.7544 19.9284 36.7532 20.1301 36.7524C20.5438 36.7506 20.9575 36.7467 21.3712 36.7422C21.4382 36.7414 21.5052 36.7407 21.5722 36.74C21.6742 36.7389 21.7761 36.7377 21.8781 36.7366C22.2635 36.7324 22.649 36.7287 23.0345 36.725C23.1775 36.7237 23.3205 36.7223 23.4635 36.7209C23.499 36.7206 23.5345 36.7203 23.5711 36.7199C23.8226 36.7175 24.074 36.715 24.3255 36.7125C26.0608 36.6951 27.7957 36.6825 29.5311 36.6875Z" fill="#1E1E1E"/>
<path d="M13.0078 23.3164C13.2239 23.5422 13.3795 23.7917 13.3809 24.1093C13.3794 24.1562 13.3776 24.2031 13.375 24.25C13.3996 24.257 13.4242 24.264 13.4495 24.2712C13.5976 24.3253 13.7323 24.3981 13.8711 24.4726C14.1295 24.6105 14.3902 24.7429 14.6525 24.8732C14.7625 24.928 14.8725 24.983 14.9824 25.0381C15.0269 25.0603 15.0715 25.0826 15.116 25.1048C15.2053 25.1495 15.2947 25.1942 15.384 25.2389C15.4061 25.2499 15.4282 25.2609 15.4509 25.2723C15.4952 25.2944 15.5395 25.3166 15.5838 25.3387C15.6939 25.3938 15.8041 25.4489 15.9144 25.5038C16.1461 25.6192 16.3766 25.7364 16.6055 25.8574C16.9664 26.0471 17.3311 26.229 17.6965 26.4101C17.7403 26.4319 17.7841 26.4537 17.8279 26.4754C17.8593 26.491 17.8593 26.491 17.8914 26.5069C18.0233 26.5726 18.1512 26.6425 18.2755 26.7216C18.493 26.812 18.7615 26.7868 18.9924 26.7883C19.0323 26.7887 19.0722 26.7891 19.1132 26.7895C19.2235 26.7906 19.3337 26.7915 19.4439 26.7923C19.563 26.7933 19.6821 26.7944 19.8012 26.7955C20.0076 26.7974 20.214 26.7992 20.4203 26.8009C20.7198 26.8034 21.0192 26.8061 21.3186 26.8089C21.8058 26.8133 22.293 26.8177 22.7802 26.8219C22.8093 26.8222 22.8385 26.8224 22.8685 26.8227C22.9865 26.8237 23.1045 26.8247 23.2226 26.8258C23.5459 26.8286 23.8693 26.8314 24.1927 26.8343C24.2361 26.8347 24.2361 26.8347 24.2803 26.835C24.7649 26.8393 25.2494 26.8437 25.734 26.8481C26.032 26.8508 26.33 26.8534 26.628 26.8559C26.833 26.8577 27.0381 26.8595 27.2432 26.8614C27.3609 26.8624 27.4786 26.8635 27.5963 26.8644C28.2001 26.8692 28.8029 26.8834 29.4063 26.9062C29.4063 27.0197 29.4063 27.1331 29.4063 27.25C27.7132 27.2555 26.0205 27.2408 24.3275 27.2239C24.0748 27.2214 23.8221 27.2189 23.5695 27.2165C23.5339 27.2162 23.4983 27.2159 23.4616 27.2155C23.3184 27.2141 23.1752 27.2128 23.032 27.2114C22.6464 27.2077 22.2608 27.2039 21.8752 27.1997C21.7732 27.1986 21.6713 27.1975 21.5694 27.1964C21.5025 27.1957 21.4355 27.1949 21.3686 27.1942C20.9568 27.1897 20.5451 27.1864 20.1333 27.1847C19.9343 27.1839 19.7352 27.1825 19.5362 27.181C19.3812 27.1799 19.2262 27.1794 19.0712 27.1795C18.9774 27.1793 18.8837 27.1786 18.7899 27.1776C18.7274 27.1772 18.665 27.1775 18.6025 27.1778C18.3457 27.1744 18.1621 27.123 17.9375 27C17.8928 26.978 17.848 26.9562 17.8031 26.9346C17.7605 26.9133 17.718 26.8919 17.6754 26.8705C17.6521 26.8588 17.6288 26.8471 17.6048 26.8351C17.5314 26.7983 17.4581 26.7614 17.3848 26.7246C17.3364 26.7003 17.288 26.676 17.2396 26.6518C17.1438 26.6038 17.0481 26.5557 16.9524 26.5077C16.8606 26.4616 16.7687 26.4156 16.6767 26.3698C16.4459 26.2548 16.2163 26.1381 15.9883 26.0175C15.5908 25.8088 15.1891 25.6088 14.7872 25.4087C14.7661 25.3981 14.7449 25.3876 14.7231 25.3767C14.6157 25.3233 14.5084 25.2699 14.401 25.2166C14.118 25.0759 13.838 24.9306 13.5601 24.7801C13.5157 24.7565 13.5157 24.7565 13.4705 24.7325C13.4445 24.7186 13.4186 24.7046 13.3918 24.6902C13.2758 24.6405 13.1715 24.61 13.0493 24.6493C13.0253 24.6612 13.0013 24.6732 12.9766 24.6855C12.7337 24.7902 12.5103 24.7724 12.2622 24.6886C12.0666 24.6039 11.9226 24.4896 11.8379 24.2915C11.7321 23.9883 11.6742 23.7166 11.791 23.4082C11.8546 23.2928 11.9125 23.2372 12.0383 23.1959C12.3816 23.1305 12.7048 23.1183 13.0078 23.3164Z" fill="#1E1E1E"/>
<path d="M19.4348 44.8837C19.479 44.8836 19.5231 44.8834 19.5673 44.8832C19.6882 44.8828 19.8092 44.8835 19.9301 44.8845C20.0607 44.8853 20.1913 44.885 20.3218 44.8849C20.5479 44.8848 20.774 44.8853 21.0001 44.8864C21.327 44.8879 21.6539 44.8884 21.9808 44.8886C22.5111 44.8891 23.0415 44.8903 23.5719 44.8921C24.087 44.8938 24.6022 44.8951 25.1173 44.8959C25.165 44.896 25.165 44.896 25.2136 44.8961C25.3729 44.8963 25.5323 44.8966 25.6916 44.8968C27.0132 44.8987 28.3348 44.902 29.6564 44.9062C29.6564 45.0197 29.6564 45.1331 29.6564 45.25C29.6106 45.2501 29.5647 45.2502 29.5174 45.2504C28.4218 45.2535 27.3261 45.2568 26.2305 45.2603C26.0948 45.2608 25.9591 45.2612 25.8234 45.2616C25.7964 45.2617 25.7694 45.2618 25.7416 45.2619C25.3078 45.2632 24.874 45.2645 24.4402 45.2657C23.993 45.267 23.5459 45.2684 23.0988 45.2699C22.8485 45.2707 22.5982 45.2715 22.3479 45.2721C21.2525 45.275 20.1577 45.2822 19.0627 45.3125C19.0534 45.3321 19.044 45.3518 19.0345 45.372C18.9968 45.444 18.9597 45.4788 18.8967 45.5293C18.7797 45.6257 18.6742 45.7302 18.5691 45.8396C18.5496 45.8596 18.5301 45.8797 18.5099 45.9004C18.4918 45.9193 18.4736 45.9382 18.4549 45.9576C18.4064 46 18.4064 46 18.3439 46C18.3336 46.0309 18.3233 46.0618 18.3127 46.0937C18.2637 46.143 18.2637 46.143 18.2013 46.1953C18.1789 46.2144 18.1564 46.2335 18.1332 46.2531C18.1099 46.2727 18.0867 46.2923 18.0627 46.3125C17.9017 46.451 17.7477 46.5924 17.6005 46.7457C17.5809 46.7658 17.5614 46.7859 17.5412 46.8066C17.523 46.8255 17.5049 46.8444 17.4861 46.8639C17.4377 46.9062 17.4377 46.9062 17.3752 46.9062C17.3597 46.9526 17.3597 46.9526 17.3439 47C17.2957 47.048 17.2957 47.048 17.2339 47.0992C17.0677 47.2402 16.9108 47.3904 16.753 47.5407C16.6409 47.647 16.5285 47.7487 16.4064 47.8437C16.3342 47.9141 16.2637 47.9859 16.1939 48.0586C16.1744 48.0785 16.155 48.0985 16.1349 48.1191C16.1168 48.138 16.0986 48.1569 16.0799 48.1764C16.0314 48.2187 16.0314 48.2187 15.9689 48.2187C15.9704 48.2444 15.9718 48.2701 15.9733 48.2966C15.9847 48.6497 15.9152 48.878 15.6778 49.1407C15.5572 49.2479 15.4026 49.2271 15.2505 49.2253C15.075 49.213 14.9779 49.1643 14.8498 49.039C14.7344 48.8676 14.7009 48.705 14.7189 48.5C14.7598 48.3438 14.8177 48.2045 14.9377 48.0937C15.1251 47.9922 15.2884 47.9505 15.5002 47.9687C15.5227 47.9771 15.5453 47.9855 15.5685 47.9941C15.5966 47.997 15.5966 47.997 15.6252 48C15.7079 47.9251 15.7079 47.9251 15.7814 47.8437C15.802 47.8437 15.8227 47.8437 15.8439 47.8437C15.8594 47.7973 15.8594 47.7973 15.8752 47.75C15.9234 47.702 15.9234 47.702 15.9852 47.6507C16.1514 47.5097 16.3082 47.3596 16.4661 47.2093C16.5782 47.103 16.6906 47.0012 16.8127 46.9062C16.8849 46.8359 16.9554 46.7641 17.0252 46.6914C17.0447 46.6714 17.0641 46.6514 17.0842 46.6308C17.1023 46.6119 17.1205 46.593 17.1392 46.5736C17.1877 46.5312 17.1877 46.5312 17.2502 46.5312C17.2605 46.5003 17.2708 46.4693 17.2814 46.4375C17.3295 46.3895 17.3295 46.3895 17.3912 46.3384C17.5342 46.217 17.6706 46.0898 17.8068 45.9609C17.8419 45.9278 17.8419 45.9278 17.8778 45.894C17.9978 45.7819 17.9978 45.7819 18.1129 45.6649C18.1564 45.625 18.1564 45.625 18.2189 45.625C18.2344 45.5786 18.2344 45.5786 18.2502 45.5312C18.2991 45.4819 18.2991 45.4819 18.3615 45.4297C18.3841 45.4105 18.4067 45.3914 18.43 45.3717C18.4531 45.3521 18.4763 45.3326 18.5002 45.3125C18.5602 45.2592 18.6201 45.2057 18.6799 45.1522C18.7031 45.1329 18.7263 45.1136 18.7502 45.0937C18.7731 45.071 18.7731 45.071 18.7964 45.0478C18.9928 44.8721 19.1807 44.8803 19.4348 44.8837Z" fill="#1E1E1E"/>
<path d="M15.7711 14.6352C15.9654 14.7753 16.0837 14.9506 16.125 15.1876C16.1319 15.3234 16.1307 15.4579 16.125 15.5938C16.1528 15.6062 16.1528 15.6062 16.1812 15.6188C16.2525 15.6577 16.2961 15.6971 16.3516 15.7559C16.4281 15.8349 16.5062 15.909 16.5898 15.9805C16.6839 16.0615 16.7722 16.1461 16.8594 16.2344C16.9844 16.361 17.1149 16.4782 17.25 16.5938C17.3022 16.6385 17.3543 16.6835 17.4063 16.7286C17.4301 16.7491 17.4539 16.7696 17.4785 16.7907C17.5313 16.8438 17.5313 16.8438 17.5313 16.9063C17.5498 16.9146 17.5683 16.9228 17.5874 16.9313C17.6588 16.9702 17.7023 17.0096 17.7578 17.0684C17.8344 17.1474 17.9124 17.2215 17.9961 17.293C18.1187 17.3984 18.2317 17.5118 18.3444 17.6276C18.4078 17.6927 18.4078 17.6927 18.5 17.7501C18.5 17.7707 18.5 17.7913 18.5 17.8126C18.5185 17.8208 18.5371 17.8291 18.5562 17.8376C18.6275 17.8764 18.6711 17.9158 18.7266 17.9747C18.8063 18.0569 18.8879 18.1342 18.9746 18.209C19.1528 18.3633 19.1528 18.3633 19.2188 18.4376C19.2188 18.4582 19.2188 18.4788 19.2188 18.5001C20.3036 18.5297 21.3882 18.5372 22.4734 18.5396C22.71 18.5401 22.9466 18.5409 23.1832 18.5416C23.6048 18.5429 24.0264 18.5442 24.448 18.5453C24.4729 18.5454 24.4979 18.5454 24.5237 18.5455C24.7783 18.5462 25.0329 18.5469 25.2876 18.5475C25.416 18.5479 25.5444 18.5482 25.6729 18.5486C25.6982 18.5486 25.7236 18.5487 25.7497 18.5488C26.1719 18.5499 26.5942 18.5511 27.0164 18.5525C27.2757 18.5533 27.535 18.554 27.7943 18.5546C27.9708 18.555 28.1474 18.5555 28.324 18.5561C28.4258 18.5564 28.5277 18.5567 28.6295 18.5568C28.7396 18.557 28.8497 18.5574 28.9597 18.5578C28.9922 18.5578 29.0247 18.5578 29.0582 18.5579C29.0874 18.558 29.1166 18.5582 29.1467 18.5583C29.1721 18.5584 29.1975 18.5584 29.2237 18.5585C29.2813 18.5626 29.2813 18.5626 29.3125 18.5938C29.3148 18.6465 29.3151 18.6993 29.3145 18.752C29.3142 18.7807 29.3139 18.8095 29.3136 18.839C29.3131 18.8723 29.3131 18.8723 29.3125 18.9063C28.0229 18.9106 26.7333 18.9139 25.4437 18.9159C25.2915 18.9161 25.1393 18.9164 24.987 18.9166C24.9567 18.9167 24.9264 18.9167 24.8952 18.9168C24.4044 18.9176 23.9136 18.9191 23.4228 18.9208C22.9193 18.9225 22.4157 18.9236 21.9121 18.9239C21.6014 18.9242 21.2907 18.925 20.9799 18.9265C20.7668 18.9275 20.5538 18.9278 20.3407 18.9276C20.2178 18.9275 20.0948 18.9277 19.9719 18.9287C19.8593 18.9296 19.7467 18.9296 19.634 18.929C19.5741 18.9289 19.5142 18.9297 19.4543 18.9305C19.2139 18.928 19.079 18.8878 18.9063 18.7188C18.8834 18.6999 18.8606 18.6809 18.837 18.6614C18.8193 18.6456 18.8015 18.6297 18.7832 18.6133C18.7152 18.5526 18.6471 18.4922 18.578 18.4328C18.5523 18.4105 18.5265 18.3882 18.5 18.3653C18.4762 18.3448 18.4523 18.3243 18.4277 18.3032C18.375 18.2501 18.375 18.2501 18.375 18.1876C18.3574 18.1803 18.3399 18.173 18.3218 18.1655C18.2323 18.1151 18.1727 18.0526 18.1016 17.9786C17.9688 17.843 17.8317 17.7169 17.6875 17.5938C17.6353 17.5491 17.5832 17.5042 17.5313 17.459C17.5074 17.4385 17.4836 17.418 17.459 17.3969C17.4063 17.3438 17.4063 17.3438 17.4063 17.2813C17.3877 17.2731 17.3692 17.2648 17.3501 17.2563C17.2787 17.2174 17.2352 17.1781 17.1797 17.1192C17.1031 17.0402 17.0251 16.9661 16.9414 16.8946C16.8474 16.8136 16.759 16.729 16.6719 16.6407C16.5468 16.5142 16.4163 16.3969 16.2813 16.2813C16.229 16.2366 16.1769 16.1917 16.125 16.1465C16.1012 16.126 16.0773 16.1055 16.0527 16.0844C16 16.0313 16 16.0313 16 15.9688C15.982 15.9604 15.9639 15.9521 15.9453 15.9434C15.875 15.9063 15.875 15.9063 15.8105 15.8536C15.7906 15.84 15.7706 15.8265 15.75 15.8126C15.7036 15.828 15.7036 15.828 15.6563 15.8438C15.4486 15.862 15.2725 15.8313 15.0938 15.7188C14.9552 15.5663 14.8832 15.4173 14.8672 15.2129C14.8796 15.0229 14.9224 14.8714 15.041 14.7208C15.236 14.5711 15.5455 14.5235 15.7711 14.6352Z" fill="#1E1E1E"/>
<path d="M43.875 37.0938C43.9966 37.1371 44.0927 37.1942 44.1973 37.2695C44.2249 37.2893 44.2525 37.309 44.2809 37.3293C44.3016 37.3444 44.3224 37.3595 44.3438 37.375C44.3128 37.3905 44.3128 37.3905 44.2812 37.4062C44.2193 37.3661 44.1575 37.3257 44.0957 37.2852C44.0613 37.2627 44.0268 37.2402 43.9913 37.217C43.9062 37.1562 43.9062 37.1562 43.875 37.0938Z" fill="black"/>
<path d="M39.1562 34.25C39.3728 34.25 39.5894 34.25 39.8125 34.25C39.8125 34.2603 39.8125 34.2706 39.8125 34.2812C39.5959 34.2812 39.3794 34.2812 39.1562 34.2812C39.1562 34.2709 39.1562 34.2606 39.1562 34.25Z" fill="black"/>
<path d="M46.0625 39.0312C46.0728 39.0312 46.0831 39.0312 46.0938 39.0312C46.0834 39.1344 46.0731 39.2375 46.0625 39.3438C46.0522 39.3438 46.0419 39.3438 46.0312 39.3438C46.0416 39.2406 46.0519 39.1375 46.0625 39.0312Z" fill="black"/>
<path d="M38.8438 34.5C38.9492 34.4961 38.9492 34.4961 39.0625 34.5C39.0831 34.5206 39.1037 34.5412 39.125 34.5625C39.0322 34.5522 38.9394 34.5419 38.8438 34.5312C38.8438 34.5209 38.8438 34.5106 38.8438 34.5Z" fill="black"/>
<path d="M43.75 42.6562C43.7706 42.6666 43.7913 42.6769 43.8125 42.6875C43.7352 42.7339 43.7352 42.7339 43.6562 42.7812C43.6666 42.7503 43.6769 42.7194 43.6875 42.6875C43.7081 42.6772 43.7287 42.6669 43.75 42.6562Z" fill="black"/>
<path d="M37.1562 35.0312C37.1666 35.0312 37.1769 35.0312 37.1875 35.0312C37.1875 35.1138 37.1875 35.1962 37.1875 35.2812C37.1772 35.2812 37.1669 35.2812 37.1562 35.2812C37.1562 35.1987 37.1562 35.1163 37.1562 35.0312Z" fill="black"/>
<path d="M44.9062 40.9062C44.9166 40.9372 44.9269 40.9681 44.9375 41C44.9169 41.0206 44.8963 41.0413 44.875 41.0625C44.8853 41.0109 44.8956 40.9594 44.9062 40.9062Z" fill="black"/>
<path d="M39.5312 39.4688C39.5519 39.4688 39.5725 39.4688 39.5938 39.4688C39.5834 39.4997 39.5731 39.5306 39.5625 39.5625C39.5522 39.5316 39.5419 39.5006 39.5312 39.4688Z" fill="black"/>
<path d="M39.8438 42.4062C39.8747 42.4217 39.8747 42.4217 39.9062 42.4375C39.8959 42.4581 39.8856 42.4787 39.875 42.5C39.8647 42.4691 39.8544 42.4381 39.8438 42.4062Z" fill="black"/>
<path d="M39.6875 42.1875C39.7184 42.203 39.7184 42.203 39.75 42.2188C39.7397 42.2394 39.7294 42.26 39.7188 42.2812C39.7084 42.2503 39.6981 42.2194 39.6875 42.1875Z" fill="black"/>
<path d="M39.625 42.0938C39.6559 42.1092 39.6559 42.1092 39.6875 42.125C39.6772 42.1456 39.6669 42.1662 39.6562 42.1875C39.6459 42.1566 39.6356 42.1256 39.625 42.0938Z" fill="black"/>
<path d="M38.2188 34.125C38.3438 34.1562 38.3438 34.1562 38.3438 34.1562L38.2188 34.125Z" fill="black"/>
<path d="M44 36.125C44.0206 36.1456 44.0412 36.1662 44.0625 36.1875C44.0419 36.1875 44.0213 36.1875 44 36.1875C44 36.1669 44 36.1463 44 36.125Z" fill="black"/>
<path d="M42.5625 34.9062C42.5831 34.9269 42.6037 34.9475 42.625 34.9688C42.6044 34.9688 42.5838 34.9688 42.5625 34.9688C42.5625 34.9481 42.5625 34.9275 42.5625 34.9062Z" fill="black"/>
<path d="M40.4375 34.1562C40.5312 34.1875 40.5312 34.1875 40.5312 34.1875L40.4375 34.1562Z" fill="black"/>
<path d="M44.25 36.3125C44.3125 36.3438 44.3125 36.3438 44.3125 36.3438L44.25 36.3125Z" fill="black"/>
<path d="M44.0938 36.2188C44.1562 36.25 44.1562 36.25 44.1562 36.25L44.0938 36.2188Z" fill="black"/>
<path d="M37 34C37.0625 34.0312 37.0625 34.0312 37.0625 34.0312L37 34Z" fill="black"/>
</svg>
